<?xml version="1.0" encoding="UTF-8"?>
<!-- Generator: Adobe Illustrator 16.0.0, SVG Export Plug-In . SVG Version: 6.00 Build 0)  -->
<!DOCTYPE svg PUBLIC "-//W3C//DTD SVG 1.1//EN" "http://www.w3.org/Graphics/SVG/1.1/DTD/svg11.dtd">
<svg version="1.1" id="Logo" xmlns="http://www.w3.org/2000/svg" xmlns:xlink="http://www.w3.org/1999/xlink" x="0px" y="0px" width="704px" height="130px" viewBox="191.5 312.5 704 130" enable-background="new 191.5 312.5 704 130" xml:space="preserve">
<g id="knigogid">
	<path fill="#303E50" d="M417.577,397.141h4.386V365.31h-5.202c-0.958,0-1.734-0.776-1.734-1.734v-5.507   c0-0.958,0.776-1.735,1.734-1.735h17.648c0.958,0,1.735,0.777,1.735,1.735v46.521c0,0.959-0.776,1.735-1.735,1.735h-16.832   c-0.958,0-1.735-0.776-1.735-1.735v-5.712C415.842,397.918,416.619,397.141,417.577,397.141z M465.887,397.644l5.046,0.723v7.142   c-1.39,0.546-3.107,0.972-5.154,1.276c-2.048,0.306-3.73,0.492-5.046,0.561c-2.342,0-4.188-0.272-5.54-0.815   c-1.354-0.543-2.578-1.529-3.675-2.959l-16.233-21.425v-3.162L450.64,359.7c1.168-1.631,2.431-2.771,3.784-3.418   c1.353-0.646,3.053-0.969,5.102-0.969c1.681,0,3.417,0.203,5.21,0.611c1.792,0.408,3.308,0.919,4.552,1.53l-0.769,7.448   l-3.958,0.263c-1.398,0.093-2.703,0.737-3.628,1.792l-11.171,12.739l12.731,16.004   C463.336,396.757,464.549,397.452,465.887,397.644z"/>
	<path fill="#303E50" d="M532.138,358.067v35.756c0,1.494,1.212,2.706,2.707,2.706h4.027v8.469   c-1.701,0.748-3.555,1.309-5.562,1.683c-2.006,0.373-3.792,0.563-5.355,0.563c-3.672,0-6.258-0.75-7.754-2.244   c-1.497-1.496-2.244-3.878-2.244-7.143v-13.469h-19.486v20.2c0,0.959-0.776,1.735-1.734,1.735h-10.71   c-0.958,0-1.735-0.776-1.735-1.735V365.31h-4.692c-0.958,0-1.734-0.776-1.734-1.734v-5.507c0-0.958,0.776-1.735,1.734-1.735h17.139   c0.958,0,1.734,0.777,1.734,1.735v18.058h19.486v-18.058c0-0.958,0.777-1.735,1.735-1.735h10.711   C531.361,356.332,532.138,357.109,532.138,358.067z"/>
	<path fill="#303E50" d="M586.921,376.635c-0.34,0.545-1.143,1.752-2.405,3.621c-1.263,1.872-2.744,3.998-4.447,6.377L566.465,405.6   c-0.326,0.454-0.851,0.725-1.41,0.725h-10.98c-0.958,0-1.735-0.776-1.735-1.735v-39.176h-4.896c-0.958,0-1.735-0.777-1.735-1.735   v-5.507c0-0.958,0.777-1.734,1.735-1.734h17.343c0.959,0,1.735,0.776,1.735,1.734v28.871h0.404v0.104   c0-0.067,0.238-0.461,0.713-1.175c0.478-0.714,1.103-1.632,1.883-2.754c0.778-1.122,1.661-2.415,2.645-3.877   c0.984-1.462,2.052-3.01,3.206-4.643l12.096-17.513c0.324-0.469,0.858-0.749,1.429-0.749h10.886c0.958,0,1.732,0.781,1.732,1.738   c0.004,6.146,0.021,12.249,0.052,18.311c0.028,5.749,0.047,11.562,0.051,17.438c0.001,1.494,1.211,2.711,2.705,2.711h4.132v8.366   c-1.771,0.748-3.64,1.292-5.611,1.631c-1.974,0.341-3.741,0.511-5.306,0.511c-2.178,0-3.912-0.306-5.203-0.919   c-1.292-0.61-2.313-1.428-3.061-2.446c-0.749-1.021-1.241-2.159-1.479-3.419c-0.239-1.258-0.355-2.533-0.355-3.825v-19.896   L586.921,376.635L586.921,376.635z"/>
	<path fill="#303E50" d="M617.731,404.588v-5.712c0-0.958,0.776-1.735,1.734-1.735h3.775V365.31h-3.57   c-0.959,0-1.735-0.776-1.735-1.734v-5.507c0-0.958,0.776-1.735,1.735-1.735h41.726c0.957,0,1.734,0.777,1.734,1.735v13.67   c0,0.958-0.777,1.734-1.734,1.734h-5.915c-0.959,0-1.735-0.776-1.735-1.734v-6.427h-16.323v31.83h5.712   c0.958,0,1.735,0.777,1.735,1.735v5.712c0,0.959-0.777,1.735-1.735,1.735h-23.668C618.509,406.323,617.731,405.547,617.731,404.588   z"/>
	<path fill="#303E50" d="M721.183,381.328c0,3.468-0.477,6.769-1.429,9.896c-0.951,3.131-2.449,5.885-4.488,8.265   c-2.04,2.382-4.678,4.27-7.906,5.663c-3.229,1.393-7.159,2.092-11.782,2.092c-4.423,0-8.213-0.682-11.377-2.041   c-3.161-1.36-5.729-3.196-7.701-5.509c-1.975-2.313-3.418-5.032-4.337-8.163c-0.918-3.127-1.377-6.494-1.377-10.101   c0-3.536,0.492-6.886,1.479-10.049c0.984-3.162,2.517-5.934,4.592-8.314c2.072-2.381,4.709-4.284,7.906-5.713   c3.195-1.43,7.003-2.144,11.427-2.144c4.486,0,8.331,0.699,11.527,2.092c3.196,1.396,5.781,3.299,7.754,5.712   c1.972,2.416,3.418,5.205,4.334,8.366C720.723,374.544,721.183,377.859,721.183,381.328z M706.595,381.43   c0-1.902-0.139-3.825-0.409-5.764s-0.783-3.656-1.53-5.153c-0.75-1.494-1.785-2.719-3.11-3.672   c-1.326-0.951-3.044-1.428-5.151-1.428c-2.179,0-3.979,0.459-5.407,1.377c-1.429,0.919-2.552,2.127-3.367,3.623   c-0.816,1.496-1.396,3.213-1.733,5.151c-0.342,1.938-0.511,3.895-0.511,5.865c0,2.179,0.136,4.22,0.408,6.122   c0.271,1.905,0.799,3.571,1.582,4.999c0.779,1.429,1.869,2.568,3.264,3.418c1.395,0.852,3.214,1.274,5.458,1.274   c2.107,0,3.859-0.441,5.254-1.325c1.396-0.883,2.466-2.074,3.213-3.572c0.748-1.494,1.276-3.178,1.583-5.049   C706.439,385.426,706.595,383.471,706.595,381.43z"/>
	<path fill="#303E50" d="M731.18,404.588v-2.549c0-0.958,0.777-1.735,1.735-1.735h3.57v-37.85h-3.265   c-0.959,0-1.734-0.777-1.734-1.735v-2.445c0-0.958,0.775-1.735,1.734-1.735h35.604c0.959,0,1.734,0.777,1.734,1.735v12.854h-6.12   v-8.672h-19.69v37.85h5.814c0.959,0,1.734,0.777,1.734,1.735v2.549c0,0.959-0.775,1.735-1.734,1.735h-17.648   C731.957,406.323,731.18,405.547,731.18,404.588z"/>
	<path fill="#303E50" d="M817.42,368.269c-0.137,0.272-0.816,1.346-2.04,3.215c-1.225,1.871-2.688,4.149-4.388,6.835   c-1.7,2.688-3.555,5.595-5.561,8.723c-2.007,3.13-3.876,6.055-5.61,8.774s-3.231,5.066-4.489,7.039   c-0.77,1.203-1.354,2.104-1.754,2.7c-0.323,0.48-0.861,0.769-1.441,0.769h-5.118c-0.958,0-1.734-0.776-1.734-1.735v-42.032h-5.509   c-0.958,0-1.735-0.776-1.735-1.734v-2.549c0-0.958,0.777-1.735,1.735-1.735h12.037c0.959,0,1.734,0.777,1.734,1.735v36.114h0.407   c0.812-1.225,1.59-2.481,2.337-3.773c0.744-1.291,1.523-2.552,2.336-3.775l10.669-16.526l8.226-12.968   c0.318-0.502,0.871-0.806,1.467-0.806h5.168c0.957,0,1.732,0.78,1.732,1.737c0.002,6.693,0.019,13.357,0.052,19.993   c0.029,6.563,0.047,13.152,0.05,19.771c0,1.08,0.876,1.959,1.956,1.959h3.33c1.081,0,1.958,0.877,1.958,1.958v3.042   c-1.361,0.611-2.842,1.071-4.438,1.377c-1.599,0.306-2.971,0.459-4.115,0.459c-2.284,0-4.015-0.595-5.189-1.786   c-1.178-1.188-1.766-2.838-1.766-4.947V368.27L817.42,368.269L817.42,368.269z"/>
	<path fill="#303E50" d="M885.672,400.304h3.264c0.958,0,1.734,0.777,1.734,1.735v16.424c0,0.959-0.776,1.735-1.734,1.735h-3.16   c-0.958,0-1.735-0.776-1.735-1.735v-12.14h-38.258v12.14c0,0.959-0.777,1.735-1.735,1.735h-3.161c-0.958,0-1.734-0.776-1.734-1.735   v-16.424c0-0.958,0.776-1.735,1.734-1.735h2.957c1.837-1.358,3.267-3.365,4.286-6.019c1.021-2.653,1.785-5.611,2.296-8.876   c0.509-3.267,0.851-6.633,1.021-10.101c0.169-3.469,0.254-6.666,0.254-9.591v-3.265h-4.385c-0.958,0-1.735-0.777-1.735-1.735   v-2.445c0-0.958,0.777-1.735,1.735-1.735h36.723c0.96,0,1.737,0.78,1.735,1.74L885.672,400.304z M859.452,362.454v3.57   c0,2.925-0.069,6.037-0.204,9.336c-0.138,3.299-0.443,6.514-0.918,9.641c-0.479,3.129-1.122,6.036-1.938,8.724   c-0.815,2.688-1.904,4.881-3.265,6.579h24.281v-37.85H859.452z"/>
</g>
<linearGradient id="SVGID_1_" gradientUnits="userSpaceOnUse" x1="232.5122" y1="595.4033" x2="233.5462" y2="526.1201" gradientTransform="matrix(1 0 0 -1 8.3398 976.04)">
	<stop offset="0" style="stop-color:#303E50"/>
	<stop offset="0.1905" style="stop-color:#303E50"/>
	<stop offset="0.4131" style="stop-color:#314152"/>
	<stop offset="0.6519" style="stop-color:#334654"/>
	<stop offset="0.9005" style="stop-color:#364E59"/>
	<stop offset="1" style="stop-color:#38525B"/>
</linearGradient>
<path fill="url(#SVGID_1_)" d="M217.163,329.451l-0.89-10.113c-0.064-0.721,0.604-1.289,1.306-1.11l46.315,20.662L217.163,329.451z"/>
<linearGradient id="SVGID_2_" gradientUnits="userSpaceOnUse" x1="227.7725" y1="604.5029" x2="228.342" y2="566.3438" gradientTransform="matrix(1 0 0 -1 8.3398 976.04)">
	<stop offset="0" style="stop-color:#303E50"/>
	<stop offset="0.1905" style="stop-color:#303E50"/>
	<stop offset="0.4131" style="stop-color:#314152"/>
	<stop offset="0.6519" style="stop-color:#334654"/>
	<stop offset="0.9005" style="stop-color:#364E59"/>
	<stop offset="1" style="stop-color:#38525B"/>
</linearGradient>
<path fill="url(#SVGID_2_)" d="M205.521,349.188l61.74-5.405l-62.078-6.369c-0.68-0.015-1.211,0.581-1.117,1.253L205.521,349.188z"/>
<linearGradient id="SVGID_3_" gradientUnits="userSpaceOnUse" x1="326.6274" y1="598.8057" x2="327.5943" y2="534.0286" gradientTransform="matrix(1 0 0 -1 8.3398 976.04)">
	<stop offset="0" style="stop-color:#303E50"/>
	<stop offset="0.1905" style="stop-color:#303E50"/>
	<stop offset="0.4131" style="stop-color:#314152"/>
	<stop offset="0.6519" style="stop-color:#334654"/>
	<stop offset="0.9005" style="stop-color:#364E59"/>
	<stop offset="1" style="stop-color:#38525B"/>
</linearGradient>
<path fill="url(#SVGID_3_)" d="M358.057,319.338c0.063-0.721-0.604-1.289-1.306-1.11l-46.315,20.662l46.731-9.438L358.057,319.338z"/>
<linearGradient id="SVGID_4_" gradientUnits="userSpaceOnUse" x1="330.7969" y1="603.6289" x2="331.3658" y2="565.5109" gradientTransform="matrix(1 0 0 -1 8.3398 976.04)">
	<stop offset="0" style="stop-color:#303E50"/>
	<stop offset="0.1905" style="stop-color:#303E50"/>
	<stop offset="0.4131" style="stop-color:#314152"/>
	<stop offset="0.6519" style="stop-color:#334654"/>
	<stop offset="0.9005" style="stop-color:#364E59"/>
	<stop offset="1" style="stop-color:#38525B"/>
</linearGradient>
<path fill="url(#SVGID_4_)" d="M370.263,338.667c0.094-0.672-0.438-1.269-1.116-1.253l-62.08,6.369l61.741,5.405L370.263,338.667z"/>
<g>
	
		<linearGradient id="SVGID_5_" gradientUnits="userSpaceOnUse" x1="283.21" y1="318.793" x2="288.7654" y2="-53.4233" gradientTransform="matrix(1 0 0 -1 8.3398 976.04)">
		<stop offset="0" style="stop-color:#303E50"/>
		<stop offset="0.1905" style="stop-color:#303E50"/>
		<stop offset="0.4131" style="stop-color:#314152"/>
		<stop offset="0.6519" style="stop-color:#334654"/>
		<stop offset="0.9005" style="stop-color:#364E59"/>
		<stop offset="1" style="stop-color:#38525B"/>
	</linearGradient>
	<path fill="url(#SVGID_5_)" d="M376.392,364.039l-13.586,66.041c-0.344,2.397-2.584,4.051-4.977,3.672l-58.929-9.507   c-0.349,1.538-2.207,3.44-6.52,3.528c-14.296,0-9.365,0-10.432,0c-4.313-0.087-6.172-1.99-6.521-3.528l-58.928,9.507   c-2.393,0.379-4.632-1.272-4.977-3.672l-13.586-66.041c-0.338-2.35,1.274-4.536,3.619-4.907l66.614-10.724l2.576,34.133   l2.623-33.491v-18.531c0-1.17,9.055-5.688,12.09-6.05v-2.94c0-0.814,0.703-1.459,1.592-1.545v-0.025   c0.015,0,0.026-0.007,0.041-0.007c0.025,0,0.046,0.012,0.071,0.013c0.025-0.001,0.046-0.013,0.07-0.013   c0.016,0,0.027,0.007,0.043,0.007v0.025c0.889,0.085,1.592,0.73,1.592,1.545v2.94c3.035,0.361,12.09,4.879,12.09,6.05v18.531   l2.623,33.491l2.576-34.133l66.612,10.724C375.117,359.503,376.729,361.689,376.392,364.039z"/>
	<circle id="small11" fill="#FFFFFF" cx="209.589" cy="369.395" r="0.928"/>
	
		<animate fill="freeze" id="small10-anim" additive="replace" accumulate="none" restart="always" from="1" calcMode="linear" to="0" dur="1.2s" attributeName="opacity" begin="0s" repeatCount="indefinite" xlink:href="#small10">
		</animate>
	<circle id="small10" fill="#FFFFFF" cx="237.867" cy="376.879" r="0.928"/>
	
		<animate fill="freeze" id="small10-anim" additive="replace" accumulate="none" restart="always" from="1" calcMode="linear" to="0" dur="1.2s" attributeName="opacity" begin="0s" repeatCount="indefinite" xlink:href="#small10">
		</animate>
	<path id="mid3" fill="#FFFFFF" d="M221.941,376.879c-2.188-0.36-3.903-2.076-4.265-4.265c-0.36,2.188-2.075,3.903-4.265,4.265   c2.188,0.36,3.904,2.076,4.265,4.265C218.038,378.955,219.753,377.239,221.941,376.879z"/>
	
		<animate fill="freeze" id="mid3-anim" additive="replace" accumulate="none" restart="always" from="1" calcMode="linear" to="0" dur="3s" attributeName="opacity" begin="mid2-anim.begin+1s" repeatCount="indefinite" xlink:href="#mid3">
		</animate>
	<circle id="small9" fill="#FFFFFF" cx="222.87" cy="390.237" r="0.928"/>
	
		<animate fill="freeze" id="small9-anim" additive="replace" accumulate="none" restart="always" from="1" calcMode="linear" to="0" dur="2s" attributeName="opacity" begin="0s" repeatCount="indefinite" xlink:href="#small9">
		</animate>
	<circle id="small8" fill="#FFFFFF" cx="236.938" cy="363.083" r="0.928"/>
	
		<animate fill="freeze" id="small8-anim" additive="replace" accumulate="none" restart="always" from="1" calcMode="linear" to="0" dur="2s" attributeName="opacity" begin="0s" repeatCount="indefinite" xlink:href="#small8">
		</animate>
	
		<animate fill="freeze" id="small8-anim" additive="replace" accumulate="none" restart="always" from="0.928" calcMode="linear" to="0" dur="2s" attributeName="r" begin="0s" repeatCount="indefinite" xlink:href="#small8">
		</animate>
	<path id="mid2" fill="#FFFFFF" d="M242.91,391.166c-1.532-0.253-2.733-1.454-2.985-2.986c-0.252,1.532-1.454,2.733-2.985,2.986   c1.531,0.252,2.732,1.453,2.985,2.985C240.177,392.619,241.378,391.418,242.91,391.166z"/>
	
		<animate fill="freeze" id="mid2-anim" additive="replace" accumulate="none" restart="always" from="1" calcMode="linear" to="0" dur="3s" attributeName="opacity" begin="mid1-anim.begin+3s" repeatCount="indefinite" xlink:href="#mid2">
		</animate>
	<path id="big2" fill="#FFFFFF" d="M255.623,367.031c-2.979-0.491-5.313-2.826-5.805-5.806c-0.49,2.979-2.825,5.314-5.805,5.806   c2.979,0.491,5.314,2.826,5.805,5.805C250.309,369.856,252.645,367.521,255.623,367.031z"/>
	
		<animate fill="big2-anim.start" id="big2-anim" additive="replace" accumulate="none" restart="always" from="1" calcMode="linear" to="0" dur="6s" attributeName="opacity" begin="4s" repeatCount="indefinite" xlink:href="#big2">
		</animate>
	<circle id="small7_1_" fill="#FFFFFF" cx="258.988" cy="375.516" r="0.928"/>
	<circle id="small6_1_" fill="#FFFFFF" cx="259.917" cy="358.256" r="0.928"/>
	<path id="window3" fill="#FFFFFF" d="M280.583,334.722c0-0.133-0.133-0.243-0.301-0.259c-1.173-0.112-2.232-0.25-3.13-0.411   c-0.211-0.038-0.401,0.086-0.401,0.256v10.684c0,0.123,0.099,0.229,0.252,0.259c0.907,0.168,1.989,0.313,3.192,0.43   c0.203,0.021,0.389-0.095,0.389-0.254L280.583,334.722L280.583,334.722z"/>
	<path id="window2" fill="#FFFFFF" d="M289.854,335c0-0.149-0.154-0.268-0.345-0.262c-0.724,0.021-1.471,0.032-2.231,0.034v0.002   c-0.014,0-0.027,0-0.041,0c-0.024,0-0.047-0.001-0.07-0.001s-0.047,0.001-0.07,0.001c-0.015,0-0.027,0-0.043,0v-0.002   c-0.76-0.003-1.508-0.013-2.23-0.034c-0.191-0.006-0.344,0.112-0.344,0.262v10.696c0,0.143,0.14,0.261,0.321,0.266   c0.767,0.022,1.558,0.035,2.365,0.036c0.81-0.001,1.599-0.014,2.364-0.036c0.183-0.005,0.322-0.124,0.322-0.266V335H289.854z"/>
	<path id="window1" fill="#FFFFFF" d="M297.58,334.309c0-0.17-0.189-0.294-0.4-0.256c-0.897,0.161-1.957,0.299-3.131,0.411   c-0.168,0.016-0.301,0.126-0.301,0.259v10.704c0,0.16,0.186,0.274,0.388,0.254c1.204-0.116,2.285-0.262,3.192-0.43   c0.152-0.029,0.252-0.136,0.252-0.259V334.309z"/>
	<circle id="small7" fill="#FFFFFF" cx="317.784" cy="361.226" r="0.928"/>
	
		<animate fill="freeze" id="small7-anim" additive="replace" accumulate="none" restart="always" from="1" calcMode="linear" to="0" dur="3.45" attributeName="opacity" begin="3.45s" repeatCount="indefinite" xlink:href="#small7">
		</animate>
	<circle id="small6" fill="#FFFFFF" cx="316.855" cy="375.516" r="0.928"/>
	
		<animate fill="freeze" id="small6-anim" additive="replace" accumulate="none" restart="always" from="1" calcMode="linear" to="0" dur="0.3s" attributeName="opacity" begin="0s" repeatCount="indefinite" xlink:href="#small6">
		</animate>
	<path id="big1" fill="#FFFFFF" d="M329.393,387.72c-2.979-0.489-5.313-2.825-5.804-5.805c-0.491,2.979-2.825,5.314-5.805,5.805   c2.979,0.49,5.313,2.825,5.805,5.806C324.08,390.545,326.415,388.21,329.393,387.72z"/>
	
		<animate fill="freeze" id="big1-anim" additive="replace" accumulate="none" restart="always" from="1" calcMode="linear" to="0" dur="6s" attributeName="opacity" begin="4s" repeatCount="indefinite" xlink:href="#big1">
		</animate>
	<circle id="small5" fill="#FFFFFF" cx="334.249" cy="373.66" r="0.928"/>
	
		<animate fill="freeze" id="small5-anim" additive="replace" accumulate="none" restart="always" from="1" calcMode="linear" to="0" dur="1.5s" attributeName="opacity" begin="0s" repeatCount="indefinite" xlink:href="#small5">
		</animate>
	<circle id="small4" fill="#FFFFFF" cx="339.598" cy="360.298" r="0.928"/>
	
		<animate fill="freeze" id="small4-anim" additive="replace" accumulate="none" restart="always" from="1" calcMode="linear" to="0" dur="1s" attributeName="opacity" begin="5s" repeatCount="indefinite" xlink:href="#small4">
		</animate>
	<circle id="small3" fill="none" cx="347.064" cy="395.079" r="0.928"/>
	
		<animate fill="freeze" id="small3-anim" additive="replace" accumulate="none" restart="always" from="1" calcMode="linear" to="0" dur="0.5s" attributeName="opacity" begin="3s" repeatCount="indefinite" xlink:href="#small3">
		</animate>
	<path id="mid1" fill="#FFFFFF" d="M356.521,369.395c-2.188-0.359-3.904-2.075-4.266-4.265c-0.361,2.189-2.076,3.904-4.265,4.265   c2.188,0.361,3.903,2.076,4.265,4.266C352.617,371.471,354.333,369.756,356.521,369.395z"/>
	
		<animate fill="freeze" id="mid1-anim" additive="replace" accumulate="none" restart="always" from="1" calcMode="linear" to="0" dur="3s" attributeName="opacity" begin="small1-anim.begin+3s" repeatCount="indefinite" xlink:href="#mid1">
		</animate>
	<circle id="small2" fill="#FFFFFF" cx="360.659" cy="382.844" r="0.928"/>
	
		<animate fill="freeze" id="small2-anim" additive="replace" accumulate="none" restart="always" from="1" calcMode="linear" to="0" dur="1s" attributeName="opacity" begin="2.33s" repeatCount="indefinite" xlink:href="#small2">
		</animate>
	<circle id="small1" fill="#FFFFFF" cx="366.08" cy="365.13" r="0.928"/>
	
		<animate fill="freeze" id="small1-anim" additive="replace" accumulate="none" restart="always" from="1" calcMode="linear" to="0" dur="1s" attributeName="opacity" begin="0s" repeatCount="indefinite" xlink:href="#small1">
		</animate>
</g>
</svg>