<svg xmlns="http://www.w3.org/2000/svg" xmlns:xlink="http://www.w3.org/1999/xlink" width="102" height="66" viewBox="0 0 102 66">
    <defs>
        <path id="a" d="M90.016.02L63.772 11.662l26.48-5.318.504-5.7a.594.594 0 0 0-.59-.645.598.598 0 0 0-.15.02M10.415.644l.504 5.7 26.48 5.318L11.154.019a.594.594 0 0 0-.74.626m40.172.353c-.015 0-.026-.007-.04-.007-.01 0-.015.004-.024.004v.014c-.504.048-.903.412-.903.871v1.657c-1.72.204-6.85 2.75-6.85 3.41V17.39l-1.487 18.874-1.46-19.237-37.746 6.045a2.448 2.448 0 0 0-2.05 2.764l7.697 37.219a2.459 2.459 0 0 0 2.82 2.069l33.392-5.358c.198.867 1.251 1.94 3.695 1.988h5.911c2.444-.048 3.496-1.121 3.695-1.988l33.391 5.358a2.458 2.458 0 0 0 2.82-2.07l7.699-37.218a2.45 2.45 0 0 0-2.05-2.764l-37.748-6.045-1.46 19.237-1.486-18.874V6.947c0-.66-5.13-3.206-6.85-3.41V1.88c0-.459-.4-.823-.903-.871V.995c-.008 0-.015-.004-.023-.004-.014 0-.026.007-.04.007m3.73 14.35V9.314c0-.075.075-.137.17-.146.664-.064 1.265-.14 1.774-.232.12-.02.227.049.227.145v6.02c0 .07-.056.13-.143.146-.514.095-1.127.176-1.809.242a.194.194 0 0 1-.025.002c-.105 0-.195-.062-.195-.145m-7.679.143a21.784 21.784 0 0 1-1.81-.242c-.086-.016-.142-.076-.142-.146v-6.02c0-.096.108-.165.227-.145.509.091 1.11.168 1.774.232.096.01.17.071.17.146v6.032c0 .083-.09.145-.193.145-.008 0-.017 0-.026-.002m4.013-6.146v-.001c.431-.001.855-.008 1.264-.02.108-.003.195.064.195.148V15.5c0 .08-.08.146-.182.149a44.984 44.984 0 0 1-2.68 0h-.001c-.103-.003-.183-.07-.183-.15V9.472c0-.084.088-.15.196-.147.41.011.833.018 1.264.019h.127m-16.03 13.234c0-.289.236-.523.526-.523.29 0 .526.234.526.523a.525.525 0 0 1-.526.523.525.525 0 0 1-.526-.523m45.152 1.151c0-.288.235-.523.526-.523.29 0 .526.235.526.523a.525.525 0 1 1-1.052 0m-12.361.523c0-.288.235-.523.526-.523a.524.524 0 0 1 0 1.046.524.524 0 0 1-.526-.523m-41.276 3.272a3.98 3.98 0 0 0 3.289-3.271 3.981 3.981 0 0 0 3.289 3.27 3.98 3.98 0 0 0-3.289 3.272 3.98 3.98 0 0 0-3.29-3.271M21.6 25.298c0-.29.235-.524.526-.524.29 0 .526.235.526.524a.525.525 0 0 1-.526.523.525.525 0 0 1-.526-.523m73.177 1.153c0-.289.236-.523.527-.523.29 0 .525.234.525.523 0 .29-.235.523-.525.523a.525.525 0 0 1-.527-.523m-9.723 2.404a2.924 2.924 0 0 0 2.417-2.404 2.924 2.924 0 0 0 2.416 2.404 2.924 2.924 0 0 0-2.416 2.403 2.925 2.925 0 0 0-2.417-2.403m-78.951 0c0-.29.235-.523.525-.523.291 0 .527.234.527.523 0 .289-.236.523-.527.523a.524.524 0 0 1-.525-.523m2.692 4.218a2.924 2.924 0 0 0 2.416-2.403 2.925 2.925 0 0 0 2.417 2.403 2.925 2.925 0 0 0-2.417 2.403 2.924 2.924 0 0 0-2.416-2.403m67.945-1.815c0-.289.236-.523.526-.523.29 0 .526.234.526.523 0 .29-.235.523-.526.523a.524.524 0 0 1-.526-.523m-9.855 1.046c0-.288.236-.523.526-.523a.524.524 0 0 1 0 1.046.524.524 0 0 1-.526-.523m-32.79 0a.524.524 0 1 1 1.051 0c0 .29-.235.523-.526.523a.524.524 0 0 1-.525-.523m-11.969.769c0-.29.235-.523.526-.523.29 0 .526.233.526.523 0 .289-.235.523-.526.523a.525.525 0 0 1-.526-.523m69.58 3.361c0-.289.236-.523.526-.523a.524.524 0 0 1 0 1.046.524.524 0 0 1-.526-.523m-23.77 2.748a3.98 3.98 0 0 0 3.29-3.271 3.98 3.98 0 0 0 3.289 3.27 3.98 3.98 0 0 0-3.289 3.272 3.98 3.98 0 0 0-3.29-3.271m-45.81 1.942a2.047 2.047 0 0 0 1.692-1.683 2.047 2.047 0 0 0 1.692 1.683 2.046 2.046 0 0 0-1.692 1.683 2.047 2.047 0 0 0-1.692-1.683m-8.498-.523c0-.289.235-.523.526-.523.29 0 .526.234.526.523a.524.524 0 0 1-.526.523.524.524 0 0 1-.526-.523m70.374 2.728c0-.288.235-.522.526-.522.29 0 .526.234.526.522 0 .29-.236.524-.526.524a.525.525 0 0 1-.526-.524M97.04 10.832L61.863 14.42l34.985 3.047.825-5.93a.623.623 0 0 0-.619-.705h-.014m-93.541.706l.824 5.929 34.985-3.047-35.177-3.588h-.014a.622.622 0 0 0-.618.706"/>
    </defs>
    <g fill="none" fill-rule="evenodd">
        <mask id="b" fill="#fff">
            <use xlink:href="#a"/>
        </mask>
        <path fill="#354052" d="M90.016.02L63.772 11.662l26.48-5.318.504-5.7a.594.594 0 0 0-.59-.645.598.598 0 0 0-.15.02M10.415.644l.504 5.7 26.48 5.318L11.154.019a.594.594 0 0 0-.74.626m40.172.353c-.015 0-.026-.007-.04-.007-.01 0-.015.004-.024.004v.014c-.504.048-.903.412-.903.871v1.657c-1.72.204-6.85 2.75-6.85 3.41V17.39l-1.487 18.874-1.46-19.237-37.746 6.045a2.448 2.448 0 0 0-2.05 2.764l7.697 37.219a2.459 2.459 0 0 0 2.82 2.069l33.392-5.358c.198.867 1.251 1.94 3.695 1.988h5.911c2.444-.048 3.496-1.121 3.695-1.988l33.391 5.358a2.458 2.458 0 0 0 2.82-2.07l7.699-37.218a2.45 2.45 0 0 0-2.05-2.764l-37.748-6.045-1.46 19.237-1.486-18.874V6.947c0-.66-5.13-3.206-6.85-3.41V1.88c0-.459-.4-.823-.903-.871V.995c-.008 0-.015-.004-.023-.004-.014 0-.026.007-.04.007m3.73 14.35V9.314c0-.075.075-.137.17-.146.664-.064 1.265-.14 1.774-.232.12-.02.227.049.227.145v6.02c0 .07-.056.13-.143.146-.514.095-1.127.176-1.809.242a.194.194 0 0 1-.025.002c-.105 0-.195-.062-.195-.145m-7.679.143a21.784 21.784 0 0 1-1.81-.242c-.086-.016-.142-.076-.142-.146v-6.02c0-.096.108-.165.227-.145.509.091 1.11.168 1.774.232.096.01.17.071.17.146v6.032c0 .083-.09.145-.193.145-.008 0-.017 0-.026-.002m4.013-6.146v-.001c.431-.001.855-.008 1.264-.02.108-.003.195.064.195.148V15.5c0 .08-.08.146-.182.149a44.984 44.984 0 0 1-2.68 0h-.001c-.103-.003-.183-.07-.183-.15V9.472c0-.084.088-.15.196-.147.41.011.833.018 1.264.019h.127m-16.03 13.234c0-.289.236-.523.526-.523.29 0 .526.234.526.523a.525.525 0 0 1-.526.523.525.525 0 0 1-.526-.523m45.152 1.151c0-.288.235-.523.526-.523.29 0 .526.235.526.523a.525.525 0 1 1-1.052 0m-12.361.523c0-.288.235-.523.526-.523a.524.524 0 0 1 0 1.046.524.524 0 0 1-.526-.523m-41.276 3.272a3.98 3.98 0 0 0 3.289-3.271 3.981 3.981 0 0 0 3.289 3.27 3.98 3.98 0 0 0-3.289 3.272 3.98 3.98 0 0 0-3.29-3.271M21.6 25.298c0-.29.235-.524.526-.524.29 0 .526.235.526.524a.525.525 0 0 1-.526.523.525.525 0 0 1-.526-.523m73.177 1.153c0-.289.236-.523.527-.523.29 0 .525.234.525.523 0 .29-.235.523-.525.523a.525.525 0 0 1-.527-.523m-9.723 2.404a2.924 2.924 0 0 0 2.417-2.404 2.924 2.924 0 0 0 2.416 2.404 2.924 2.924 0 0 0-2.416 2.403 2.925 2.925 0 0 0-2.417-2.403m-78.951 0c0-.29.235-.523.525-.523.291 0 .527.234.527.523 0 .289-.236.523-.527.523a.524.524 0 0 1-.525-.523m2.692 4.218a2.924 2.924 0 0 0 2.416-2.403 2.925 2.925 0 0 0 2.417 2.403 2.925 2.925 0 0 0-2.417 2.403 2.924 2.924 0 0 0-2.416-2.403m67.945-1.815c0-.289.236-.523.526-.523.29 0 .526.234.526.523 0 .29-.235.523-.526.523a.524.524 0 0 1-.526-.523m-9.855 1.046c0-.288.236-.523.526-.523a.524.524 0 0 1 0 1.046.524.524 0 0 1-.526-.523m-32.79 0a.524.524 0 1 1 1.051 0c0 .29-.235.523-.526.523a.524.524 0 0 1-.525-.523m-11.969.769c0-.29.235-.523.526-.523.29 0 .526.233.526.523 0 .289-.235.523-.526.523a.525.525 0 0 1-.526-.523m69.58 3.361c0-.289.236-.523.526-.523a.524.524 0 0 1 0 1.046.524.524 0 0 1-.526-.523m-23.77 2.748a3.98 3.98 0 0 0 3.29-3.271 3.98 3.98 0 0 0 3.289 3.27 3.98 3.98 0 0 0-3.289 3.272 3.98 3.98 0 0 0-3.29-3.271m-45.81 1.942a2.047 2.047 0 0 0 1.692-1.683 2.047 2.047 0 0 0 1.692 1.683 2.046 2.046 0 0 0-1.692 1.683 2.047 2.047 0 0 0-1.692-1.683m-8.498-.523c0-.289.235-.523.526-.523.29 0 .526.234.526.523a.524.524 0 0 1-.526.523.524.524 0 0 1-.526-.523m70.374 2.728c0-.288.235-.522.526-.522.29 0 .526.234.526.522 0 .29-.236.524-.526.524a.525.525 0 0 1-.526-.524M97.04 10.832L61.863 14.42l34.985 3.047.825-5.93a.623.623 0 0 0-.619-.705h-.014m-93.541.706l.824 5.929 34.985-3.047-35.177-3.588h-.014a.622.622 0 0 0-.618.706" mask="url(#b)"/>
    </g>
</svg>
