<?xml version="1.0" encoding="UTF-8"?>
<svg width="50px" height="50px" viewBox="0 0 50 50" version="1.1" xmlns="http://www.w3.org/2000/svg" xmlns:xlink="http://www.w3.org/1999/xlink">
    <!-- Generator: sketchtool 54.1 (76490) - https://sketchapp.com -->
    <title>2415022B-AC5F-4CD1-854A-28D50D516EB3</title>
    <desc>Created with sketchtool.</desc>
    <defs>
        <rect id="path-1" x="0" y="0" width="50" height="50" rx="25"></rect>
        <path d="M15.8965683,8.25640801 C15.8772168,8.2147031 15.8591767,8.18010929 15.8424189,8.15239344 C15.5651439,7.65301275 15.0352787,7.04005829 14.2531439,6.31335519 L14.2366193,6.29671403 L14.2283424,6.28855373 L14.2199781,6.28018944 L14.2115847,6.28018944 C13.856612,5.94179964 13.6318251,5.71427322 13.5376903,5.59778506 C13.3654499,5.37588342 13.3268634,5.1512714 13.4209982,4.9236867 C13.4875046,4.7517377 13.737326,4.38860474 14.1698798,3.83379235 C14.3974062,3.53975956 14.5776029,3.304102 14.710674,3.12655738 C15.6704117,1.85063752 16.0864991,1.03530783 15.9588488,0.680247723 L15.909275,0.597275046 C15.8759636,0.547322404 15.7899891,0.501624772 15.6514681,0.459948998 C15.5126266,0.418360656 15.3351694,0.411482696 15.118776,0.439198543 L12.7224481,0.455752277 C12.6836284,0.441996357 12.6281967,0.443278689 12.5559781,0.459948998 C12.483847,0.476619308 12.4477668,0.484983607 12.4477668,0.484983607 L12.4060619,0.505821494 L12.3729545,0.530856102 C12.3452095,0.547409836 12.3146958,0.57652459 12.2813843,0.618142077 C12.2482477,0.659613843 12.2205319,0.708284153 12.1983825,0.763744991 C11.9374863,1.43495811 11.6408597,2.05901639 11.307949,2.63589071 C11.1026885,2.97987614 10.9141858,3.27798907 10.7420328,3.53040437 C10.5701129,3.78273224 10.4258798,3.96864117 10.3094791,4.08781056 C10.1929035,4.20709654 10.087694,4.30265938 9.99320947,4.37484882 C9.89887067,4.4470674 9.8268561,4.47758106 9.77699089,4.46641894 C9.72700911,4.45525683 9.67994171,4.44418215 9.63538069,4.43310747 C9.55777049,4.38315483 9.49534426,4.3152204 9.44827687,4.2292459 C9.40100546,4.1432714 9.36918033,4.03506011 9.35253916,3.90469945 C9.33598543,3.77425137 9.32619308,3.66204736 9.32339526,3.56770856 C9.32080146,3.47348634 9.32199636,3.34021129 9.32762113,3.1682623 C9.33339162,2.99622587 9.33598543,2.87982514 9.33598543,2.81879781 C9.33598543,2.60797086 9.34009472,2.37916211 9.34834244,2.1323133 C9.35673588,1.88546448 9.36352641,1.68987978 9.36920947,1.54579235 C9.37486339,1.4015592 9.37748634,1.24896175 9.37748634,1.08808743 C9.37748634,0.927213115 9.36769399,0.80104918 9.34834244,0.709479053 C9.32922404,0.618025501 9.29987614,0.529253188 9.26120219,0.443191257 C9.22229508,0.357216758 9.16534791,0.290710383 9.09062295,0.243497268 C9.01575228,0.196342441 8.92266667,0.158921676 8.81189071,0.131118397 C8.51785792,0.064582878 8.14344627,0.0285901639 7.68848087,0.0229945355 C6.65675774,0.0119198543 5.99382149,0.0785428051 5.69981785,0.222775956 C5.58332969,0.283715847 5.47791621,0.366979964 5.38366485,0.472306011 C5.28378871,0.5943898 5.26985792,0.66101275 5.34195993,0.671970856 C5.67484153,0.721836066 5.91049909,0.84112204 6.0491949,1.0297122 L6.09917668,1.12964663 C6.13805464,1.20174863 6.17687432,1.32939891 6.21572313,1.51242259 C6.25451366,1.69544627 6.27954827,1.89790893 6.29056466,2.11969399 C6.31825137,2.52470674 6.31825137,2.87140255 6.29056466,3.15981056 C6.26279053,3.44833515 6.23656102,3.67294718 6.21152641,3.83382149 C6.1864918,3.99469581 6.14907104,4.12505647 6.09917668,4.22487432 C6.0491949,4.32472131 6.01594171,4.38574863 5.9992714,4.407898 C5.98263024,4.43004736 5.96875774,4.44400729 5.95774135,4.44948634 C5.88563934,4.47711475 5.81065209,4.49119126 5.73304189,4.49119126 C5.65531512,4.49119126 5.56106375,4.4523133 5.45014208,4.37461566 C5.33924954,4.29691803 5.22416029,4.19019308 5.10487432,4.05426594 C4.98558834,3.91830965 4.85106011,3.72832058 4.70123133,3.48426958 C4.55151913,3.24021858 4.39618215,2.95178142 4.23530783,2.61895811 L4.10220765,2.37758834 C4.01900182,2.22230965 3.90534062,1.99621129 3.76110747,1.69949727 C3.61678689,1.40266667 3.48922404,1.11554098 3.37833151,0.838178506 C3.33400364,0.721690346 3.26740984,0.633005464 3.17866667,0.571978142 L3.13702004,0.546943534 C3.10933333,0.524794171 3.06488889,0.501275046 3.00391985,0.476211293 C2.94286339,0.451176685 2.87915483,0.433224044 2.81253188,0.422178506 L0.53263388,0.43873224 C0.299657559,0.43873224 0.141581056,0.49151184 0.0583460838,0.596925319 L0.0250346084,0.646790528 C0.00839344262,0.674564663 0,0.718921676 0,0.779978142 C0,0.841005464 0.0166411658,0.915905282 0.0499526412,1.00459016 C0.382775956,1.78681239 0.744714026,2.54120219 1.13576685,3.26787614 C1.52681967,3.99455009 1.86663752,4.57990528 2.15501639,5.02341712 C2.44345355,5.46724954 2.73745719,5.88613479 3.03702732,6.27986885 C3.33659745,6.67374863 3.53489253,6.92616393 3.63191257,7.03705647 C3.72904918,7.14815301 3.80534791,7.23121311 3.86080874,7.28667395 L4.06886703,7.4863388 C4.20199636,7.61949727 4.39749362,7.77897268 4.65544627,7.96476503 C4.91345719,8.15067395 5.19909654,8.33369763 5.51251002,8.5141275 C5.82598179,8.69426594 6.19065938,8.84126776 6.60674681,8.95495811 C7.02277596,9.06876503 7.42770128,9.11443352 7.82158106,9.09240073 L8.7784918,9.09240073 C8.97256102,9.07564299 9.11959199,9.01461566 9.21952641,8.90928962 L9.25263388,8.8675847 C9.27489982,8.83447723 9.2957377,8.78303825 9.31497268,8.71382149 C9.3344408,8.64448816 9.34411658,8.568102 9.34411658,8.48501275 C9.33843352,8.24652823 9.35659016,8.03159199 9.39809107,7.84023315 C9.43956284,7.6489326 9.48683424,7.50469945 9.53970128,7.40756284 C9.59253916,7.31051366 9.65216758,7.22861931 9.71852823,7.16222951 C9.78503461,7.09569399 9.83242259,7.05538798 9.86022587,7.04151548 C9.88785428,7.02755556 9.90991621,7.01808379 9.92655738,7.01240073 C10.0596867,6.96804372 10.2163643,7.01100182 10.3968233,7.14147905 C10.5771366,7.27183971 10.7462587,7.43280146 10.9044517,7.624102 C11.0625574,7.81557741 11.2525173,8.03039709 11.4743607,8.2688816 C11.6963497,8.50745355 11.8904481,8.68479417 12.0568015,8.80145719 L12.2231548,8.90130419 C12.3342514,8.96792714 12.4784845,9.02895446 12.6560291,9.0844153 C12.8332532,9.13984699 12.9885319,9.15371949 13.1218652,9.12600364 L15.2519053,9.0927796 C15.4625865,9.0927796 15.6265209,9.05789435 15.7428051,8.9886776 C15.8593224,8.91934426 15.9285392,8.84295811 15.9508634,8.75986885 C15.9731293,8.67669217 15.9743242,8.58232423 15.9550893,8.47682332 C15.9353588,8.3715847 15.9159199,8.29799636 15.8965683,8.25640801 Z" id="path-3"></path>
    </defs>
    <g id="kits" stroke="none" stroke-width="1" fill="none" fill-rule="evenodd">
        <g id="Styleguide----UI-kits-(update)" transform="translate(-3243.000000, -804.000000)">
            <g id="Group-9" transform="translate(3243.000000, 804.000000)">
                <mask id="mask-2" fill="white">
                    <use xlink:href="#path-1"></use>
                </mask>
                <g id="Base"></g>
                <rect id="Base" fill="#4680C1" mask="url(#mask-2)" x="0" y="0" width="50" height="50"></rect>
                <g id="Icon/Social/VK" mask="url(#mask-2)">
                    <g transform="translate(17.000000, 17.000000)" id="vk-social-network-logo">
                        <g transform="translate(0.000000, 3.000000)">
                            <g id="↳-🎨Color">
                                <mask id="mask-4" fill="white">
                                    <use xlink:href="#path-3"></use>
                                </mask>
                                <use id="Mask" fill="#000000" fill-rule="nonzero" xlink:href="#path-3"></use>
                                <g id="UI/Color/Flat/White-(Default)" mask="url(#mask-4)" fill="#FFFFFF">
                                    <g transform="translate(0.000000, -3.000000)" id="Base">
                                        <rect x="0" y="0" width="16" height="16"></rect>
                                    </g>
                                </g>
                            </g>
                        </g>
                    </g>
                </g>
            </g>
        </g>
    </g>
</svg>