<?xml version="1.0" encoding="UTF-8"?>
<svg width="50px" height="50px" viewBox="0 0 50 50" version="1.1" xmlns="http://www.w3.org/2000/svg" xmlns:xlink="http://www.w3.org/1999/xlink">
    <!-- Generator: sketchtool 54.1 (76490) - https://sketchapp.com -->
    <title>BAC766BE-DA74-40E7-8C48-B10B7C602FA6</title>
    <desc>Created with sketchtool.</desc>
    <defs>
        <rect id="path-1" x="0" y="0" width="50" height="50" rx="25"></rect>
        <path d="M9,16 L9,8 L12,8 L12,6 L9,6 L9,4 C9.19256506,3.21977598 9.41263941,2.65739668 11,3 L12,3 L12,0 C11.7501859,0.0741599073 10.8877323,0 10,0 C7.79479554,0 6.36728625,1.32869834 6,4 L6,6 L4,6 L4,8 L6,8 L6,16 L9,16 Z" id="path-3"></path>
    </defs>
    <g id="kits" stroke="none" stroke-width="1" fill="none" fill-rule="evenodd">
        <g id="Styleguide----UI-kits-(update)" transform="translate(-3299.000000, -804.000000)">
            <g id="Group-8" transform="translate(3299.000000, 804.000000)">
                <mask id="mask-2" fill="white">
                    <use xlink:href="#path-1"></use>
                </mask>
                <g id="Base"></g>
                <rect id="Base" fill="#3B5998" mask="url(#mask-2)" x="0" y="0" width="50" height="50"></rect>
                <g id="Icon/Social/Facebook" mask="url(#mask-2)">
                    <g transform="translate(17.000000, 17.000000)">
                        <mask id="mask-4" fill="white">
                            <use xlink:href="#path-3"></use>
                        </mask>
                        <g id="Facebook" stroke="none" fill="none"></g>
                        <g id="UI/Color/Flat/Light-Blue" stroke="none" fill="none" mask="url(#mask-4)" fill-rule="evenodd">
                            <rect id="Base" fill="#F1F4F8" x="0" y="0" width="16" height="16"></rect>
                        </g>
                    </g>
                </g>
            </g>
        </g>
    </g>
</svg>