<?xml version="1.0" encoding="UTF-8"?>
<svg width="50px" height="50px" viewBox="0 0 50 50" version="1.1" xmlns="http://www.w3.org/2000/svg" xmlns:xlink="http://www.w3.org/1999/xlink">
    <!-- Generator: sketchtool 54.1 (76490) - https://sketchapp.com -->
    <title>666B3DCF-C8B9-4179-8E59-FB061B59974D</title>
    <desc>Created with sketchtool.</desc>
    <defs>
        <rect id="path-1" x="0" y="0" width="50" height="50" rx="25"></rect>
        <path d="M4.00683333,11.2090158 C2.77316667,11.0803492 1.66083333,10.7765158 0.7085,10.0316825 C0.590333333,9.93901583 0.468333333,9.8496825 0.3605,9.7461825 C-0.0563333333,9.34584917 -0.0983333333,8.88734917 0.2315,8.41484917 C0.513666667,8.01051583 0.987333333,7.90234917 1.47966667,8.13451583 C1.575,8.17951583 1.66583333,8.2356825 1.75283333,8.29601583 C3.52766667,9.51551583 5.96583333,9.5491825 7.74733333,8.35084917 C7.92383333,8.21551583 8.1125,8.1051825 8.33116667,8.04884917 C8.75633333,7.9396825 9.15283333,8.09584917 9.381,8.46784917 C9.64166667,8.8926825 9.63833333,9.30734917 9.31716667,9.6371825 C8.8245,10.1428492 8.232,10.5086825 7.57366667,10.7640158 C6.95116667,11.0053492 6.26933333,11.1268492 5.5945,11.2075158 C5.69633333,11.3183492 5.74433333,11.3728492 5.808,11.4368492 C6.72433333,12.3575158 7.64466667,13.2743492 8.558,14.1978492 C8.86916667,14.5125158 8.93416667,14.9026825 8.76283333,15.2686825 C8.5755,15.6686825 8.15616667,15.9318492 7.745,15.9036825 C7.4845,15.8856825 7.28133333,15.7560158 7.10083333,15.5741825 C6.40933333,14.8783492 5.70483333,14.1953492 5.02733333,13.4863492 C4.83016667,13.2801825 4.73533333,13.3191825 4.56133333,13.4981825 C3.86566667,14.2143492 3.15866667,14.9195158 2.4475,15.6206825 C2.12816667,15.9355158 1.74816667,15.9921825 1.37783333,15.8123492 C0.984166667,15.6215158 0.733666667,15.2196825 0.753,14.8158492 C0.766333333,14.5426825 0.900666667,14.3340158 1.08816667,14.1468492 C1.995,13.2413492 2.89933333,12.3335158 3.804,11.4265158 C3.86383333,11.3661825 3.91966667,11.3021825 4.00683333,11.2090158 Z M4.75833333,8.05484917 C2.5575,8.04734917 0.752833333,6.22284917 0.765666667,4.01851583 C0.778333333,1.78984917 2.58416667,-0.00615083394 4.80666667,1.58327231e-05 C7.03366667,0.00601583272 8.82116667,1.82784917 8.81,4.0796825 C8.79866667,6.27951583 6.9815,8.06251583 4.75833333,8.05484917 Z M6.7585,4.02384917 C6.75466667,2.92934917 5.883,2.05801583 4.79066667,2.05701583 C3.68916667,2.05584917 2.80966667,2.94301583 2.81816667,4.04751583 C2.82633333,5.13784917 3.7055,6.00301583 4.80083333,5.99901583 C5.89283333,5.9951825 6.76216667,5.1181825 6.7585,4.02384917 Z" id="path-3"></path>
    </defs>
    <g id="kits" stroke="none" stroke-width="1" fill="none" fill-rule="evenodd">
        <g id="Styleguide----UI-kits-(update)" transform="translate(-3410.000000, -804.000000)">
            <g id="Group-6" transform="translate(3410.000000, 804.000000)">
                <mask id="mask-2" fill="white">
                    <use xlink:href="#path-1"></use>
                </mask>
                <g id="Base"></g>
                <rect id="Base" fill="#FF9800" mask="url(#mask-2)" x="0" y="0" width="50" height="50"></rect>
                <g id="Icon/Social/OK" mask="url(#mask-2)">
                    <g transform="translate(17.000000, 17.000000)" id="↳-🎨Color">
                        <g transform="translate(3.000000, -0.000016)">
                            <mask id="mask-4" fill="white">
                                <use xlink:href="#path-3"></use>
                            </mask>
                            <use id="Mask" fill="#000000" fill-rule="nonzero" xlink:href="#path-3"></use>
                            <g id="UI/Color/Flat/White-(Default)" mask="url(#mask-4)" fill="#FFFFFF">
                                <g transform="translate(-3.000000, 0.000016)" id="Base">
                                    <rect x="0" y="0" width="16" height="16"></rect>
                                </g>
                            </g>
                        </g>
                    </g>
                </g>
            </g>
        </g>
    </g>
</svg>