<?xml version="1.0" encoding="UTF-8"?>
<svg width="50px" height="50px" viewBox="0 0 50 50" version="1.1" xmlns="http://www.w3.org/2000/svg" xmlns:xlink="http://www.w3.org/1999/xlink">
    <!-- Generator: sketchtool 54.1 (76490) - https://sketchapp.com -->
    <title>6EF18FDA-E0F7-4A67-934E-4C424CCD321F</title>
    <desc>Created with sketchtool.</desc>
    <defs>
        <rect id="path-1" x="0" y="0" width="50" height="50" rx="25"></rect>
        <path d="M9.66501844,11.4950152 L12,12 L11.4979617,9.65101949 L11.0084812,7.56774227 C11.0104664,7.56672069 11.0079733,7.56374882 11.0079733,7.56374882 L5.47557907,2 C3.94619501,2.66021834 2.70651948,3.86893148 2,5.37989255 L7.5926444,11.0047039 L9.66501844,11.4950152 Z M10.7526605,7.90309863 L11.1172546,9.51319926 C10.4379285,9.85510302 9.86792984,10.4283479 9.52808211,11.1120625 L7.92722891,10.7454087 C8.50304483,9.48296982 9.49747226,8.48284445 10.7526605,7.90309863 Z M8.41442198,15.6153846 C4.48111209,15.6153846 1.2928044,12.4270769 1.2928044,8.4942989 C1.2928044,7.41160879 1.53586813,6.38645714 1.96803516,5.46767912 L0.464492308,3.96452308 C1.36397802,2.50962198 2.5894989,1.28414945 4.04435165,0.384615385 L5.6078989,1.94830769 C6.46942857,1.57861099 7.41774945,1.37316484 8.41437363,1.37316484 C12.3471516,1.37316484 15.5354593,4.56147253 15.5354593,8.49425055 C15.5354593,12.4270286 12.3472,15.6153846 8.41442198,15.6153846 Z" id="path-3"></path>
    </defs>
    <g id="kits" stroke="none" stroke-width="1" fill="none" fill-rule="evenodd">
        <g id="Styleguide----UI-kits-(update)" transform="translate(-3466.000000, -804.000000)">
            <g id="Group-11" transform="translate(3466.000000, 804.000000)">
                <mask id="mask-2" fill="white">
                    <use xlink:href="#path-1"></use>
                </mask>
                <g id="Base"></g>
                <rect id="Base" fill="#3597DB" mask="url(#mask-2)" x="-1.42108547e-14" y="0" width="50" height="50"></rect>
                <g id="Icon/Social/LJ2" mask="url(#mask-2)">
                    <g transform="translate(17.000000, 17.000000)">
                        <mask id="mask-4" fill="white">
                            <use xlink:href="#path-3"></use>
                        </mask>
                        <use id="Mask" stroke="none" fill="#000000" fill-rule="nonzero" xlink:href="#path-3"></use>
                        <g id="UI/Color/Flat/White-(Default)" stroke="none" fill="none" mask="url(#mask-4)" fill-rule="evenodd">
                            <rect id="Base" fill="#FFFFFF" x="0" y="0" width="16" height="16"></rect>
                        </g>
                        <text id="@" stroke="none" fill="none" mask="url(#mask-4)" font-family="ProximaNova-Semibold, Proxima Nova" font-size="26" font-weight="500">
                            <tspan x="7" y="39" fill="#354052">@</tspan>
                        </text>
                    </g>
                </g>
            </g>
        </g>
    </g>
</svg>