<?xml version="1.0" encoding="UTF-8"?>
<svg width="50px" height="50px" viewBox="0 0 50 50" version="1.1" xmlns="http://www.w3.org/2000/svg" xmlns:xlink="http://www.w3.org/1999/xlink">
    <!-- Generator: sketchtool 54.1 (76490) - https://sketchapp.com -->
    <title>B686C7BD-D723-4F63-8BC3-A2849CF66E77</title>
    <desc>Created with sketchtool.</desc>
    <defs>
        <rect id="path-1" x="0" y="0" width="50" height="50" rx="25"></rect>
        <path d="M7.93176972,3.84146341 C8.69367829,3.84146341 9.32480205,4.02438841 9.82515991,4.3902439 C10.01848,4.02438841 10.3084558,3.84146341 10.6950959,3.84146341 C10.9452749,3.84146341 11.1556495,3.91629637 11.326226,4.06596452 C11.4968026,4.21563268 11.5820896,4.41241563 11.5820896,4.65631929 L11.5820896,8.64745011 C11.5820896,9.47893986 11.9118659,9.89467849 12.5714286,9.89467849 C13.2878501,9.89467849 13.7768288,9.58980349 14.0383795,8.98004435 C14.2771867,8.41463132 14.3965885,7.51663586 14.3965885,6.28603104 C14.3965885,4.60087849 13.7597789,3.33703304 12.4861407,2.49445676 C11.3944508,1.78491885 9.93888614,1.43015521 8.11940299,1.43015521 C6.07248443,1.43015521 4.48046055,1.94567112 3.34328358,2.9767184 C2.1719913,4.04102528 1.58635394,5.5598571 1.58635394,7.53325942 C1.58635394,9.49557522 2.1663055,10.9977775 3.32622601,12.0399113 C4.45203122,13.0598721 6.0326835,13.5698448 8.06823028,13.5698448 C9.01208716,13.5698448 9.94455829,13.4312652 10.8656716,13.154102 C11.1272223,13.0654098 11.3830833,12.9767188 11.6332623,12.8880266 C11.9516718,12.7882478 12.2189044,12.7383592 12.434968,12.7383592 C12.8557235,12.7383592 13.0660981,12.9878024 13.0660981,13.4866962 C13.0660981,13.8192921 12.5657477,14.1407967 11.565032,14.4512195 C10.8940976,14.6507771 10.228859,14.7948998 9.56929638,14.883592 C9.01207966,14.9611977 8.5287867,15 8.11940299,15 C5.74270311,15 3.80953126,14.3403614 2.31982942,13.0210643 C0.773268742,11.6574211 0,9.82817112 0,7.53325942 C0,5.2272612 0.767582942,3.38692483 2.30277186,2.01219512 C3.79247369,0.670725 5.73133134,0 8.11940299,0 C9.34755412,0 10.4392276,0.144122727 11.3944563,0.432372506 C12.8272993,0.864747173 13.941716,1.56873126 14.7377399,2.5443459 C15.5792508,3.56430665 16,4.78934983 16,6.2195122 C16,9.54547118 14.7434383,11.2084257 12.2302772,11.2084257 C11.8550088,11.2084257 11.4626886,11.11142 11.0533049,10.9174058 C10.6439212,10.7233915 10.365317,10.4767199 10.217484,10.1773836 C9.51243429,10.8647484 8.63113535,11.2084257 7.57356077,11.2084257 C6.59558857,11.2084257 5.79957663,10.8259462 5.18550107,10.0609756 C4.61691258,9.35143769 4.3326226,8.50887406 4.3326226,7.53325942 C4.3326226,6.53547173 4.67661348,5.67073537 5.36460554,4.93902439 C6.05259761,4.20731341 6.90831045,3.84146341 7.93176972,3.84146341 Z M6.34541578,7.53325942 C6.34541578,8.10975898 6.45913177,8.5920158 6.68656716,8.98004435 C6.97086141,9.45676513 7.38592478,9.69512195 7.93176972,9.69512195 C9.103062,9.69512195 9.68869936,8.94679241 9.68869936,7.45011086 C9.68869936,6.05320809 9.1371768,5.35476718 8.03411514,5.35476718 C7.44278311,5.35476718 6.99929075,5.58203764 6.70362473,6.03658537 C6.46481757,6.42461391 6.34541578,6.92350028 6.34541578,7.53325942 Z" id="path-3"></path>
    </defs>
    <g id="kits" stroke="none" stroke-width="1" fill="none" fill-rule="evenodd">
        <g id="Styleguide----UI-kits-(update)" transform="translate(-3521.000000, -804.000000)">
            <g id="Group-4" transform="translate(3521.000000, 804.000000)">
                <g id="Group-10">
                    <mask id="mask-2" fill="white">
                        <use xlink:href="#path-1"></use>
                    </mask>
                    <g id="Base"></g>
                    <rect id="Base" fill="#273142" mask="url(#mask-2)" x="-1.42108547e-14" y="0" width="50" height="50"></rect>
                    <g id="Icon/Social/mail" mask="url(#mask-2)">
                        <g transform="translate(17.000000, 17.000000)" id="↳-🎨Color">
                            <g>
                                <mask id="mask-4" fill="white">
                                    <use xlink:href="#path-3"></use>
                                </mask>
                                <use id="Mask" fill="#354052" fill-rule="nonzero" xlink:href="#path-3"></use>
                                <g id="UI/Color/Flat/White-(Default)" mask="url(#mask-4)" fill="#FFFFFF">
                                    <g transform="translate(-1.000000, -1.000000)" id="Base">
                                        <rect x="0" y="0" width="18" height="18"></rect>
                                    </g>
                                </g>
                            </g>
                        </g>
                    </g>
                </g>
            </g>
        </g>
    </g>
</svg>