<?xml version="1.0" encoding="UTF-8"?>
<svg width="26px" height="26px" viewBox="0 0 26 26" version="1.1" xmlns="http://www.w3.org/2000/svg" xmlns:xlink="http://www.w3.org/1999/xlink">
    <!-- Generator: sketchtool 54.1 (76490) - https://sketchapp.com -->
    <title>37724CEB-89BC-4FD0-A53C-89465564BD61</title>
    <desc>Created with sketchtool.</desc>
    <defs>
        <path d="M22.1848964,3.6627907 C19.7276178,1.30021142 16.4677382,0 12.9934652,0 C9.51919217,0 6.25931257,1.30021142 3.80203402,3.6627907 C-0.947605064,8.22938689 -1.27744111,15.5391121 2.98294117,20.4704017 C2.56514884,21.2790698 1.89448221,22.2198732 0.8994768,22.6902748 C0.421214532,22.9175476 0.151848427,23.4090909 0.234307438,23.9164905 C0.31676645,24.4238901 0.723564242,24.820296 1.25130192,24.8995772 C1.49867895,24.9365751 1.85050407,24.9735729 2.27929093,24.9735729 C3.42821983,24.9735729 5.12137821,24.7145877 6.85301745,23.5147992 C8.78255833,24.5137421 10.893509,25 12.9879679,25 C16.3522956,25 19.6836397,23.7473573 22.1903937,21.3372093 C24.6476722,18.97463 26,15.8403805 26,12.5 C26,9.15961945 24.6421749,6.02536998 22.1848964,3.6627907 Z M21.1349183,20.3276956 C17.4242628,23.8953488 11.6796183,24.6035941 7.16086443,22.05074 C6.86401199,21.8816068 6.49569507,21.9344609 6.25931257,22.1617336 C6.2373235,22.1723044 6.21533443,22.1881607 6.19884263,22.2040169 C4.70908315,23.3139535 3.24681,23.5465116 2.27929093,23.5465116 L2.27379366,23.5465116 C3.38973896,22.7642706 4.09338919,21.6014799 4.50568425,20.6976744 C4.57165146,20.5443975 4.582646,20.3858351 4.54416512,20.2378436 C4.52767332,20.0951374 4.46720338,19.9524313 4.3627553,19.8361522 C0.33875552,15.4651163 0.547651683,8.80549683 4.84651483,4.67230444 C9.33778234,0.354122622 16.6436508,0.354122622 21.129421,4.67230444 C25.6261858,8.99048626 25.6261858,16.0095137 21.1349183,20.3276956 Z" id="path-1"></path>
    </defs>
    <g id="Symbols" stroke="none" stroke-width="1" fill="none" fill-rule="evenodd">
        <g id="Icon/Social/chat">
            <g id="chat" transform="translate(0.000000, 1.000000)">
                <g id="Oval-+-Oval-+-Oval-+-UI/Color/Flat/Grey-50%-Mask">
                    <mask id="mask-2" fill="white">
                        <use xlink:href="#path-1"></use>
                    </mask>
                    <use id="Mask" fill="#354052" fill-rule="nonzero" xlink:href="#path-1"></use>
                    <g id="UI/Color/Flat/Grey-50%" mask="url(#mask-2)" fill="#354052">
                        <g transform="translate(0.000000, -1.000000)" id="Base">
                            <rect x="0" y="0" width="26" height="26"></rect>
                        </g>
                    </g>
                    <circle id="Oval" fill="#354052" fill-rule="nonzero" cx="13" cy="12" r="1"></circle>
                    <circle id="Oval" fill="#354052" fill-rule="nonzero" cx="18" cy="12" r="1"></circle>
                    <circle id="Oval" fill="#354052" fill-rule="nonzero" cx="8" cy="12" r="1"></circle>
                </g>
            </g>
        </g>
    </g>
</svg>