<?xml version="1.0" encoding="UTF-8"?>
<svg width="26px" height="26px" viewBox="0 0 26 26" version="1.1" xmlns="http://www.w3.org/2000/svg" xmlns:xlink="http://www.w3.org/1999/xlink">
    <!-- Generator: sketchtool 54.1 (76490) - https://sketchapp.com -->
    <title>F8D47FFA-9CA1-4B21-9BD4-C67426067378</title>
    <desc>Created with sketchtool.</desc>
    <defs>
        <path d="M1.17430913,25.2192763 C0.815107359,25.2192763 0.526859022,24.8311761 0.526859022,24.3607516 L0.526859022,14.7993737 C0.526859022,14.3230689 0.819541949,13.940849 1.17430913,13.940849 L3.87940891,13.940849 C4.23861069,13.940849 4.52685902,14.3289492 4.52685902,14.7993737 L4.52685902,24.3548713 C4.52685902,24.8311761 4.2341761,25.213396 3.87940891,25.213396 L1.17430913,25.213396 L1.17430913,25.2192763 Z M23.752974,17.3455463 C23.5080589,17.6042797 23.4614084,17.9982603 23.6480104,18.3040362 C23.6480104,18.3099165 23.8870941,18.7215379 23.9162507,19.2860473 C23.9570699,20.0563674 23.5896972,20.738483 22.8199641,21.3206333 C22.5458924,21.5323243 22.4350975,21.8969033 22.5517237,22.2262004 C22.5517237,22.2320807 22.8024701,23.0082811 22.3942783,23.7433194 C22.0035804,24.4489562 21.134715,24.9546625 19.8168385,25.2369172 C18.7613711,25.4662491 17.3268684,25.5074113 15.5658122,25.3662839 C15.5424869,25.3662839 15.5133304,25.3662839 15.4841738,25.3662839 C11.7346403,25.4486082 7.94428765,24.9546625 7.90346846,24.9487822 L7.89763715,24.9487822 L7.30867466,24.8782185 C7.34366253,24.7135699 7.36115647,24.5371608 7.36115647,24.3607516 L7.36115647,14.7993737 C7.36115647,14.5465205 7.32033728,14.2995477 7.25036154,14.0702157 C7.35532515,13.6762352 7.64689074,12.8000696 8.33498554,12.0532707 C10.9532445,9.9598817 13.5131904,2.89763396 13.6239854,2.59185804 C13.6706358,2.46837161 13.6822985,2.33312457 13.6589732,2.19787752 C13.5598409,1.53928323 13.5948288,0.73368128 13.7347803,0.492588727 C14.0438398,0.498469033 14.8777174,0.586673626 15.3792102,1.28643006 C15.974004,2.11555324 15.9506788,3.5973904 15.3092345,5.56141267 C14.3295741,8.55448852 14.2479357,10.1304106 15.0235002,10.8242867 C15.4083668,11.1712248 15.9215222,11.1888657 16.2947262,11.0536186 C16.6504362,10.9712944 16.9886523,10.9007307 17.3093744,10.8478079 C17.3326997,10.8419276 17.3618562,10.8360473 17.3851815,10.830167 C19.1753942,10.4361865 22.3826157,10.1950939 23.4963962,11.2182672 C24.4410688,12.0885525 23.7704679,13.2410926 23.6946609,13.364579 C23.4789023,13.6938761 23.5430467,14.1231385 23.8346123,14.3877523 C23.8404436,14.3936326 24.4527314,14.9757829 24.4818879,15.7578636 C24.5052132,16.2812109 24.2602981,16.8163187 23.752974,17.3455463 Z" id="path-1"></path>
    </defs>
    <g id="Symbols" stroke="none" stroke-width="1" fill="none" fill-rule="evenodd">
        <g id="Icon/Social/like-Copy">
            <g id="like-(1)">
                <g id="UI/Color/Flat/Grey-50%">
                    <mask id="mask-2" fill="white">
                        <use xlink:href="#path-1"></use>
                    </mask>
                    <use id="Mask" stroke="#354052" fill-rule="nonzero" xlink:href="#path-1"></use>
                    <g mask="url(#mask-2)" fill="#354052" id="Base">
                        <g transform="translate(-1.086957, -1.083333)">
                            <rect x="0" y="0" width="28" height="28"></rect>
                        </g>
                    </g>
                </g>
            </g>
        </g>
    </g>
</svg>