<?xml version="1.0" encoding="UTF-8"?>
<svg width="26px" height="26px" viewBox="0 0 26 26" version="1.1" xmlns="http://www.w3.org/2000/svg" xmlns:xlink="http://www.w3.org/1999/xlink">
    <!-- Generator: sketchtool 54.1 (76490) - https://sketchapp.com -->
    <title>EC067A65-4631-40FA-9A07-332A6EE8F279</title>
    <desc>Created with sketchtool.</desc>
    <defs>
        <path d="M24.2261266,17.6463466 C24.7518777,16.9678497 25.0040236,16.240501 24.9718348,15.4914405 C24.9396459,14.6663883 24.5748391,14.0204593 24.2744099,13.6242171 C24.6231223,12.7448852 24.7572425,11.3607516 23.5930794,10.2860125 C22.7400751,9.49895616 21.2915773,9.14613779 19.2851395,9.24384134 C17.8741953,9.30897704 16.6939378,9.57494781 16.6456545,9.58580376 L16.6402897,9.58580376 C16.3720494,9.63465553 16.0877146,9.69436326 15.798015,9.75949896 C15.7765558,9.41210856 15.8355687,8.54906054 16.4686159,6.60584551 C17.2196888,4.29352818 17.1767704,2.52400835 16.3291309,1.34070981 C15.438573,0.0977035491 14.0168991,7.46069873e-14 13.5984442,7.46069873e-14 C13.1960837,7.46069873e-14 12.825912,0.168267223 12.5630365,0.477661795 C11.9675429,1.17787056 12.0372854,2.4697286 12.1123927,3.06680585 C11.4042382,4.98830898 9.41925966,9.69979123 7.74007511,11.0079332 C7.70788627,11.0296451 7.68106223,11.056785 7.6542382,11.0839248 C7.16067597,11.6104384 6.82805794,12.1803758 6.60273605,12.6797495 C6.28621245,12.5060543 5.92677039,12.4083507 5.54050429,12.4083507 L2.2679721,12.4083507 C1.03406652,12.4083507 0.0362124464,13.423382 0.0362124464,14.6663883 L0.0362124464,23.4868476 C0.0362124464,24.7352818 1.03943133,25.7448852 2.2679721,25.7448852 L5.54050429,25.7448852 C6.0179721,25.7448852 6.46325107,25.5929019 6.82805794,25.3323591 L8.08878755,25.4843424 C8.2819206,25.5114823 11.715397,25.9511482 15.2400751,25.8805846 C15.8784871,25.9294363 16.4793455,25.9565762 17.0372854,25.9565762 C17.9975858,25.9565762 18.8344957,25.8805846 19.5319206,25.7286013 C21.1735515,25.3757829 22.2947961,24.6701461 22.8634657,23.6334029 C23.298015,22.8409186 23.298015,22.0538622 23.2282725,21.5544885 C24.2958691,20.577453 24.4836373,19.497286 24.4460837,18.7373695 C24.4246245,18.2977035 24.3280579,17.9231733 24.2261266,17.6463466 Z M2.2679721,24.2793319 C1.83342275,24.2793319 1.4847103,23.9210856 1.4847103,23.4868476 L1.4847103,14.6609603 C1.4847103,14.2212944 1.83878755,13.868476 2.2679721,13.868476 L5.54050429,13.868476 C5.97505365,13.868476 6.32376609,14.2267223 6.32376609,14.6609603 L6.32376609,23.4814196 C6.32376609,23.9210856 5.96968884,24.273904 5.54050429,24.273904 L2.2679721,24.273904 L2.2679721,24.2793319 Z M22.8527361,17.0112735 C22.6274142,17.2501044 22.5844957,17.6137787 22.7561695,17.8960334 C22.7561695,17.9014614 22.9761266,18.2814196 23.0029506,18.8025052 C23.0405043,19.5135699 22.7025215,20.143215 21.994367,20.6805846 C21.742221,20.8759916 21.6402897,21.2125261 21.7475858,21.5164927 C21.7475858,21.5219207 21.9782725,22.2384134 21.6027361,22.9169102 C21.243294,23.5682672 20.4439378,24.0350731 19.2314914,24.2956159 C18.2604614,24.5073069 16.9407189,24.5453027 15.3205472,24.4150313 C15.299088,24.4150313 15.2722639,24.4150313 15.2454399,24.4150313 C11.7958691,24.491023 8.30874464,24.0350731 8.27119099,24.0296451 L8.26582618,24.0296451 L7.72398069,23.9645094 C7.75616953,23.8125261 7.77226395,23.6496868 7.77226395,23.4868476 L7.77226395,14.6609603 C7.77226395,14.4275574 7.7347103,14.1995825 7.67033262,13.9878914 C7.76689914,13.6242171 8.03513948,12.8154489 8.6681867,12.126096 C11.076985,10.193737 13.4321352,3.67473904 13.5340665,3.39248434 C13.576985,3.27849687 13.5877146,3.15365344 13.5662554,3.02881002 C13.4750536,2.42087683 13.5072425,1.67724426 13.6359979,1.45469729 C13.9203326,1.46012526 14.6875,1.54154489 15.1488734,2.1874739 C15.6960837,2.95281837 15.6746245,4.32066806 15.0844957,6.13361169 C14.1832082,8.89645094 14.1081009,10.3511482 14.8216202,10.9916493 C15.1756974,11.3118998 15.6478004,11.3281837 15.9911481,11.2033403 C16.3184013,11.1273486 16.6295601,11.0622129 16.9246245,11.0133612 C16.9460837,11.0079332 16.9729077,11.0025052 16.994367,10.9970772 C18.6413627,10.6334029 21.5920064,10.4108559 22.6166845,11.3553236 C23.4857833,12.1586639 22.8688305,13.222547 22.799088,13.3365344 C22.6005901,13.640501 22.659603,14.0367432 22.9278433,14.2810021 C22.9332082,14.2864301 23.4965129,14.8237996 23.5233369,15.5457203 C23.5447961,16.02881 23.3194742,16.5227557 22.8527361,17.0112735 Z" id="path-1"></path>
    </defs>
    <g id="Symbols" stroke="none" stroke-width="1" fill="none" fill-rule="evenodd">
        <g id="Icon/Social/like">
            <g id="like-(1)">
                <g id="UI/Color/Flat/Grey-50%">
                    <mask id="mask-2" fill="white">
                        <use xlink:href="#path-1"></use>
                    </mask>
                    <use id="Mask" fill="#354052" fill-rule="nonzero" xlink:href="#path-1"></use>
                    <g mask="url(#mask-2)" fill="#354052" id="Base">
                        <rect x="0" y="0" width="26" height="26"></rect>
                    </g>
                </g>
            </g>
        </g>
    </g>
</svg>