<svg xmlns="http://www.w3.org/2000/svg" xmlns:xlink="http://www.w3.org/1999/xlink" width="16" height="16" viewBox="0 0 16 16">
    <defs>
        <path id="a" d="M15.58 2.757c.197.507.333 1.088.37 1.942.044.853.05 1.125.05 3.301s-.012 2.448-.05 3.301c-.037.847-.173 1.435-.37 1.942a3.91 3.91 0 0 1-.922 1.415 3.91 3.91 0 0 1-1.415.922c-.507.197-1.088.333-1.942.37-.853.044-1.125.05-3.301.05s-2.448-.012-3.301-.05c-.847-.037-1.435-.173-1.942-.37a3.91 3.91 0 0 1-1.415-.922 3.91 3.91 0 0 1-.922-1.415C.223 12.736.087 12.155.05 11.3.005 10.448 0 10.176 0 8s.012-2.448.05-3.301c.037-.847.173-1.435.37-1.942a3.91 3.91 0 0 1 .922-1.415A3.91 3.91 0 0 1 2.757.42C3.264.223 3.845.087 4.7.05 5.552.005 5.824 0 8 0s2.448.012 3.301.05c.847.037 1.435.173 1.942.37.525.204.97.476 1.415.922.446.445.718.89.922 1.415zm-1.625 8.198C13.989 10.186 14 9.949 14 8c0-1.95-.011-2.18-.045-2.955-.034-.712-.153-1.096-.254-1.356a2.289 2.289 0 0 0-.548-.842 2.264 2.264 0 0 0-.842-.548c-.255-.101-.644-.22-1.356-.254C10.186 2.005 9.949 2 8 2c-1.95 0-2.18.011-2.955.045-.712.034-1.096.153-1.356.254a2.289 2.289 0 0 0-.842.548 2.264 2.264 0 0 0-.548.842c-.101.255-.22.644-.254 1.356C2.005 5.814 2 6.051 2 8c0 1.95.011 2.18.045 2.955.034.712.153 1.096.254 1.356.136.344.294.587.548.842.255.254.503.418.842.548.255.101.644.22 1.356.254.769.04 1 .045 2.955.045s2.18-.011 2.955-.045c.712-.034 1.096-.153 1.356-.254.344-.136.587-.294.842-.548.254-.255.418-.503.548-.842.101-.255.22-.644.254-1.356zM12 5a1 1 0 1 1 0-2 1 1 0 0 1 0 2zM8 4c2.208 0 4 1.792 4 4s-1.792 4-4 4-4-1.792-4-4 1.792-4 4-4zm0 6c1.102 0 2-.898 2-2a2 2 0 1 0-2 2z"/>
    </defs>
    <use fill="#354052" fill-rule="evenodd" xlink:href="#a"/>
</svg>
