<svg xmlns="http://www.w3.org/2000/svg" xmlns:xlink="http://www.w3.org/1999/xlink" width="16" height="12" viewBox="0 0 16 12">
    <defs>
        <path id="a" d="M16 1.42a6.945 6.945 0 0 1-1.885.477c.677-.375 1.198-.968 1.443-1.675-.634.346-1.336.6-2.084.734A3.415 3.415 0 0 0 11.077 0C9.264 0 7.795 1.356 7.795 3.03c0 .236.028.468.084.69C5.151 3.593 2.733 2.387 1.113.554A2.844 2.844 0 0 0 .67 2.077c0 1.052.58 1.979 1.46 2.522A3.483 3.483 0 0 1 .643 4.22v.038c0 1.468 1.13 2.693 2.632 2.971a3.564 3.564 0 0 1-1.482.052c.418 1.203 1.63 2.079 3.066 2.104a6.941 6.941 0 0 1-4.076 1.297c-.265 0-.526-.014-.783-.042A9.871 9.871 0 0 0 5.032 12c6.037 0 9.34-4.616 9.34-8.62 0-.13-.004-.261-.01-.392A6.4 6.4 0 0 0 16 1.42z"/>
    </defs>
    <use fill="#354052" fill-rule="evenodd" xlink:href="#a"/>
</svg>
