<?xml version="1.0" encoding="UTF-8"?>
<svg width="26px" height="26px" viewBox="0 0 26 26" version="1.1" xmlns="http://www.w3.org/2000/svg" xmlns:xlink="http://www.w3.org/1999/xlink">
    <!-- Generator: sketchtool 54.1 (76490) - https://sketchapp.com -->
    <title>1CC4A8FB-76A0-4FD6-A181-86E260A9D40C</title>
    <desc>Created with sketchtool.</desc>
    <defs>
        <path d="M20.5950207,16.6896266 C19.1008299,16.6896266 17.7684647,17.4016598 16.9161826,18.5020747 L9.77966805,14.5157676 C9.94688797,14.0356846 10.0385892,13.5178423 10.0385892,12.9838174 C10.0385892,12.4443983 9.94688797,11.9319502 9.77427386,11.446473 L16.9053942,7.46556017 C17.7522822,8.57136929 19.0900415,9.28879668 20.5896266,9.28879668 C23.146473,9.28879668 25.2340249,7.206639 25.2340249,4.64439834 C25.2340249,2.08215768 23.1518672,0 20.5896266,0 C18.0273859,0 15.9452282,2.08215768 15.9452282,4.64439834 C15.9452282,5.18381743 16.0369295,5.70165975 16.2095436,6.18174274 L9.08381743,10.1626556 C8.23692946,9.05145228 6.89917012,8.33941909 5.39958506,8.33941909 C2.84273859,8.33941909 0.755186722,10.4215768 0.755186722,12.9838174 C0.755186722,15.5460581 2.84273859,17.6282158 5.40497925,17.6282158 C6.90456432,17.6282158 8.24232365,16.9107884 9.09460581,15.7995851 L16.2257261,19.7858921 C16.053112,20.2713693 15.9560166,20.7946058 15.9560166,21.3340249 C15.9560166,23.8908714 18.0381743,25.9784232 20.6004149,25.9784232 C23.1626556,25.9784232 25.2448133,23.8962656 25.2448133,21.3340249 C25.2448133,18.7717842 23.1572614,16.6896266 20.5950207,16.6896266 Z M20.5950207,1.46182573 C22.353527,1.46182573 23.7829876,2.89128631 23.7829876,4.64979253 C23.7829876,6.40829876 22.353527,7.83775934 20.5950207,7.83775934 C18.8365145,7.83775934 17.4070539,6.40829876 17.4070539,4.64979253 C17.4070539,2.89128631 18.8419087,1.46182573 20.5950207,1.46182573 Z M5.40497925,16.1717842 C3.64647303,16.1717842 2.21701245,14.7423237 2.21701245,12.9838174 C2.21701245,11.2253112 3.64647303,9.79585062 5.40497925,9.79585062 C7.16348548,9.79585062 8.59294606,11.2253112 8.59294606,12.9838174 C8.59294606,14.7423237 7.15809129,16.1717842 5.40497925,16.1717842 Z M20.5950207,24.5165975 C18.8365145,24.5165975 17.4070539,23.0871369 17.4070539,21.3286307 C17.4070539,19.5701245 18.8365145,18.1406639 20.5950207,18.1406639 C22.353527,18.1406639 23.7829876,19.5701245 23.7829876,21.3286307 C23.7829876,23.0871369 22.353527,24.5165975 20.5950207,24.5165975 Z" id="path-1"></path>
    </defs>
    <g id="Symbols" stroke="none" stroke-width="1" fill="none" fill-rule="evenodd">
        <g id="Icon/Social/Share">
            <g id="share" transform="translate(-1.000000, 0.000000)">
                <g id="UI/Color/Flat/Grey-50%" transform="translate(0.287967, 0.000000)">
                    <mask id="mask-2" fill="white">
                        <use xlink:href="#path-1"></use>
                    </mask>
                    <use id="Mask" fill="#718FA7" fill-rule="nonzero" xlink:href="#path-1"></use>
                    <g mask="url(#mask-2)" fill="#354052" id="Base">
                        <g transform="translate(1.000000, 0.000000)">
                            <rect x="0" y="0" width="26" height="26"></rect>
                        </g>
                    </g>
                </g>
            </g>
        </g>
    </g>
</svg>