<svg xmlns="http://www.w3.org/2000/svg" width="15" height="15" viewBox="0 0 15 15">
    <path fill="#A3A5B1" fill-rule="nonzero" d="M12.604.938H2.396c-.802 0-1.458.656-1.458 1.458V7.5c0 .802.656 1.458 1.458 1.458h10.208c.802 0 1.459-.656 1.459-1.458V2.396c0-.802-.657-1.458-1.459-1.458zm0 4.375h-2.29c-.342 0-.612.24-.707.568C9.345 6.8 8.484 7.5 7.5 7.5c-.984 0-1.845-.7-2.107-1.619-.095-.328-.365-.569-.708-.569h-2.29V3.126c0-.401.329-.73.73-.73h8.75c.401 0 .73.329.73.73v2.188zm-2.282 5.104h3.011c.401 0 .73.328.73.729v1.458c0 .802-.657 1.459-1.459 1.459H2.396a1.463 1.463 0 0 1-1.458-1.459v-1.458c0-.401.328-.73.729-.73h3.011c.343 0 .62.249.715.584a2.185 2.185 0 0 0 4.214 0c.095-.335.372-.583.715-.583z"/>
</svg>
