<?xml version="1.0" encoding="UTF-8"?>
<svg width="16px" height="16px" viewBox="0 0 16 16" version="1.1" xmlns="http://www.w3.org/2000/svg" xmlns:xlink="http://www.w3.org/1999/xlink">
    <!-- Generator: sketchtool 54.1 (76490) - https://sketchapp.com -->
    <title>ECB340CF-B5B9-47A5-810A-C13370A4CAA0</title>
    <desc>Created with sketchtool.</desc>
    <defs>
        <path d="M12.4444444,0 L1.55555556,0 C0.7,0 0,0.7 0,1.55555556 L0,7 C0,7.85555556 0.7,8.55555556 1.55555556,8.55555556 L12.4444444,8.55555556 C13.3,8.55555556 14,7.85555556 14,7 L14,1.55555556 C14,0.7 13.3,0 12.4444444,0 Z M12.4444444,4.66666667 L10.0022222,4.66666667 C9.63666667,4.66666667 9.34888889,4.92333333 9.24777778,5.27333333 C8.96777778,6.25333333 8.05,7 7,7 C5.95,7 5.03222222,6.25333333 4.75222222,5.27333333 C4.65111111,4.92333333 4.36333333,4.66666667 3.99777778,4.66666667 L1.55555556,4.66666667 L1.55555556,2.33333333 C1.55555556,1.90555556 1.90555556,1.55555556 2.33333333,1.55555556 L11.6666667,1.55555556 C12.0944444,1.55555556 12.4444444,1.90555556 12.4444444,2.33333333 L12.4444444,4.66666667 Z M10.01,10.1111111 L13.2222222,10.1111111 C13.65,10.1111111 14,10.4611111 14,10.8888889 L14,12.4444444 C14,13.3 13.3,14 12.4444444,14 L1.55555556,14 C0.7,14 0,13.3 0,12.4444444 L0,10.8888889 C0,10.4611111 0.35,10.1111111 0.777777778,10.1111111 L3.99,10.1111111 C4.35555556,10.1111111 4.65111111,10.3755556 4.75222222,10.7333333 C5.02444444,11.7211111 5.92666667,12.4444444 7,12.4444444 C8.07333333,12.4444444 8.97555556,11.7211111 9.24777778,10.7333333 C9.34888889,10.3755556 9.64444444,10.1111111 10.01,10.1111111 Z" id="path-1"></path>
    </defs>
    <g id="Symbols" stroke="none" stroke-width="1" fill="none" fill-rule="evenodd">
        <g id="Icon/shelf">
            <g id="round-insert_emoticon-24px" transform="translate(1.000000, 1.000000)">
                <g id="↳-🎨Color">
                    <mask id="mask-2" fill="white">
                        <use xlink:href="#path-1"></use>
                    </mask>
                    <use id="Mask" fill="#000000" fill-rule="nonzero" xlink:href="#path-1"></use>
                    <g id="UI/Color/Flat/Grey-50%" mask="url(#mask-2)" fill="#A8AAB7">
                        <g transform="translate(-1.000000, -1.000000)" id="Base">
                            <rect x="0" y="0" width="16" height="16"></rect>
                        </g>
                    </g>
                </g>
            </g>
        </g>
    </g>
</svg>