<?xml version="1.0" encoding="UTF-8"?>
<svg width="16px" height="16px" viewBox="0 0 16 16" version="1.1" xmlns="http://www.w3.org/2000/svg" xmlns:xlink="http://www.w3.org/1999/xlink">
    <!-- Generator: sketchtool 54.1 (76490) - https://sketchapp.com -->
    <title>0C42E2A0-61FF-40F7-A050-E114563113A5</title>
    <desc>Created with sketchtool.</desc>
    <defs>
        <path d="M8,3 C4.66666667,3 1.82,5.07333333 0.666666667,8 C1.82,10.9266667 4.66666667,13 8,13 C11.3333333,13 14.18,10.9266667 15.3333333,8 C14.18,5.07333333 11.3333333,3 8,3 Z M8,11.3333333 C6.16,11.3333333 4.66666667,9.84 4.66666667,8 C4.66666667,6.16 6.16,4.66666667 8,4.66666667 C9.84,4.66666667 11.3333333,6.16 11.3333333,8 C11.3333333,9.84 9.84,11.3333333 8,11.3333333 Z M8,6 C6.89333333,6 6,6.89333333 6,8 C6,9.10666667 6.89333333,10 8,10 C9.10666667,10 10,9.10666667 10,8 C10,6.89333333 9.10666667,6 8,6 Z" id="path-1"></path>
    </defs>
    <g id="Symbols" stroke="none" stroke-width="1" fill="none" fill-rule="evenodd">
        <g id="Icon/eye">
            <mask id="mask-2" fill="white">
                <use xlink:href="#path-1"></use>
            </mask>
            <use id="Mask" fill="#000000" fill-rule="nonzero" xlink:href="#path-1"></use>
            <g id="UI/Color/Flat/Grey-50%" mask="url(#mask-2)" fill="#A8AAB7">
                <rect id="Base" x="0" y="0" width="16" height="16"></rect>
            </g>
        </g>
    </g>
</svg>