<?xml version="1.0" encoding="UTF-8"?>
<svg width="13px" height="88px" viewBox="0 0 13 88" version="1.1" xmlns="http://www.w3.org/2000/svg" xmlns:xlink="http://www.w3.org/1999/xlink">
    <!-- Generator: sketchtool 54.1 (76490) - https://sketchapp.com -->
    <title>8B7C9D28-5FAF-445D-9C5F-D1314F21D2A1</title>
    <desc>Created with sketchtool.</desc>
    <defs>
        <path d="M12.7462696,12.1353846 L11.6409885,11.0769231 L11.6409885,6.97435897 C11.6409885,4.45538462 10.2358251,2.34666667 7.78535712,1.78871795 L7.78535712,1.23076923 C7.78535712,0.54974359 7.21129644,0 6.50014664,0 C5.78899684,0 5.21493617,0.54974359 5.21493617,1.23076923 L5.21493617,1.78871795 C2.75590012,2.34666667 1.35930474,4.44717949 1.35930474,6.97435897 L1.35930474,11.0769231 L0.254023725,12.1353846 C-0.285764675,12.6523077 0.0912303981,13.5384615 0.853788614,13.5384615 L12.1379366,13.5384615 C12.9090629,13.5384615 13.286058,12.6523077 12.7462696,12.1353846 Z M9.92737458,11.8974359 L3.0729187,11.8974359 L3.0729187,6.97435897 C3.0729187,4.93948718 4.36669725,3.28205128 6.50014664,3.28205128 C8.63359603,3.28205128 9.92737458,4.93948718 9.92737458,6.97435897 L9.92737458,11.8974359 Z M6.50014664,16 C7.44263432,16 8.21376061,15.2615385 8.21376061,14.3589744 L4.78653267,14.3589744 C4.78653267,15.2615385 5.54909089,16 6.50014664,16 Z" id="path-1"></path>
    </defs>
    <g id="kits" stroke="none" stroke-width="1" fill="none" fill-rule="evenodd">
        <g id="Styleguide----UI-kits-(update)" transform="translate(-3528.000000, -1617.000000)">
            <g id="Icon/bell" transform="translate(3528.000000, 1617.000000)">
                <path d="M12.7462696,49.1353846 L11.6409885,48.0769231 L11.6409885,43.974359 C11.6409885,41.4553846 10.2358251,39.3466667 7.78535712,38.7887179 L7.78535712,38.2307692 C7.78535712,37.5497436 7.21129644,37 6.50014664,37 C5.78899684,37 5.21493617,37.5497436 5.21493617,38.2307692 L5.21493617,38.7887179 C2.75590012,39.3466667 1.35930474,41.4471795 1.35930474,43.974359 L1.35930474,48.0769231 L0.254023725,49.1353846 C-0.285764675,49.6523077 0.0912303981,50.5384615 0.853788614,50.5384615 L12.1379366,50.5384615 C12.9090629,50.5384615 13.286058,49.6523077 12.7462696,49.1353846 Z M9.92737458,48.8974359 L3.0729187,48.8974359 L3.0729187,43.974359 C3.0729187,41.9394872 4.36669725,40.2820513 6.50014664,40.2820513 C8.63359603,40.2820513 9.92737458,41.9394872 9.92737458,43.974359 L9.92737458,48.8974359 Z M6.50014664,53 C7.44263432,53 8.21376061,52.2615385 8.21376061,51.3589744 L4.78653267,51.3589744 C4.78653267,52.2615385 5.54909089,53 6.50014664,53 Z" id="Mask" fill="#354052" fill-rule="nonzero"></path>
                <mask id="mask-2" fill="white">
                    <use xlink:href="#path-1"></use>
                </mask>
                <use id="Mask" fill="#A3A5B1" fill-rule="nonzero" xlink:href="#path-1"></use>
                <path d="M12.7462696,84.1353846 L11.6409885,83.0769231 L11.6409885,78.974359 C11.6409885,76.4553846 10.2358251,74.3466667 7.78535712,73.7887179 L7.78535712,73.2307692 C7.78535712,72.5497436 7.21129644,72 6.50014664,72 C5.78899684,72 5.21493617,72.5497436 5.21493617,73.2307692 L5.21493617,73.7887179 C2.75590012,74.3466667 1.35930474,76.4471795 1.35930474,78.974359 L1.35930474,83.0769231 L0.254023725,84.1353846 C-0.285764675,84.6523077 0.0912303981,85.5384615 0.853788614,85.5384615 L12.1379366,85.5384615 C12.9090629,85.5384615 13.286058,84.6523077 12.7462696,84.1353846 Z M9.92737458,83.8974359 L3.0729187,83.8974359 L3.0729187,78.974359 C3.0729187,76.9394872 4.36669725,75.2820513 6.50014664,75.2820513 C8.63359603,75.2820513 9.92737458,76.9394872 9.92737458,78.974359 L9.92737458,83.8974359 Z M6.50014664,88 C7.44263432,88 8.21376061,87.2615385 8.21376061,86.3589744 L4.78653267,86.3589744 C4.78653267,87.2615385 5.54909089,88 6.50014664,88 Z" id="Mask" fill="#1991EB" fill-rule="nonzero"></path>
            </g>
        </g>
    </g>
</svg>