<svg xmlns="http://www.w3.org/2000/svg" xmlns:xlink="http://www.w3.org/1999/xlink" width="46" height="46" viewBox="0 0 46 46">
    <defs>
        <linearGradient id="c" x1="20.651%" x2="121.293%" y1="13.55%" y2="122.865%">
            <stop offset="0%" stop-color="#1991EB"/>
            <stop offset="100%" stop-color="#4E2ACE" stop-opacity=".987"/>
        </linearGradient>
        <circle id="b" cx="18" cy="18" r="18"/>
        <filter id="a" width="141.7%" height="141.7%" x="-20.8%" y="-20.8%" filterUnits="objectBoundingBox">
            <feOffset in="SourceAlpha" result="shadowOffsetOuter1"/>
            <feGaussianBlur in="shadowOffsetOuter1" result="shadowBlurOuter1" stdDeviation="2.5"/>
            <feColorMatrix in="shadowBlurOuter1" values="0 0 0 0 0.0980392157 0 0 0 0 0.568627451 0 0 0 0 0.921568627 0 0 0 1 0"/>
        </filter>
    </defs>
    <g fill="none" fill-rule="evenodd">
        <g transform="translate(5 5)">
            <use fill="#000" filter="url(#a)" xlink:href="#b"/>
            <use fill="url(#c)" style="mix-blend-mode:multiply" xlink:href="#b"/>
        </g>
        <g fill="#FFF" fill-rule="nonzero" transform="translate(11 13)">
            <path d="M.364 5.508v9.785C.364 16.787 1.637 18 3.204 18h17.592c1.567 0 2.84-1.213 2.84-2.707V5.508c0-1.421-1.21-2.575-2.702-2.575h-3.78l-.091-.376C16.697 1.05 15.306 0 13.681 0h-3.367c-1.62 0-3.011 1.05-3.382 2.557l-.09.376H3.066C1.575 2.933.364 4.092.364 5.508zm6.943-1.466c.271 0 .504-.177.566-.43l.194-.806c.247-1 1.169-1.697 2.247-1.697h3.367c1.078 0 2 .697 2.247 1.697l.195.806c.061.249.294.43.565.43h4.241c.85 0 1.539.656 1.539 1.466v9.785c0 .883-.75 1.598-1.677 1.598H3.204c-.926 0-1.677-.715-1.677-1.598V5.508c0-.81.689-1.466 1.54-1.466h4.24z"/>
            <ellipse cx="4.727" cy="6.231" rx="1" ry="1"/>
            <path d="M12 15.23c2.805 0 5.09-2.175 5.09-4.845S14.806 5.538 12 5.538c-2.805 0-5.09 2.172-5.09 4.847 0 2.675 2.285 4.846 5.09 4.846zm0-8.538c2.137 0 3.879 1.658 3.879 3.693 0 2.034-1.742 3.692-3.879 3.692s-3.879-1.658-3.879-3.692c0-2.035 1.742-3.693 3.879-3.693z"/>
        </g>
    </g>
</svg>
