<?xml version="1.0" encoding="UTF-8"?>
<svg width="31px" height="24px" viewBox="0 0 31 24" version="1.1" xmlns="http://www.w3.org/2000/svg" xmlns:xlink="http://www.w3.org/1999/xlink">
    <!-- Generator: sketchtool 54.1 (76490) - https://sketchapp.com -->
    <title>13A56985-7E96-4859-9AF3-3317CD885E3A</title>
    <desc>Created with sketchtool.</desc>
    <g id="main" stroke="none" stroke-width="1" fill="none" fill-rule="evenodd">
        <g id="Extra-Small-Devices:-Phones---2-Col-Copy-4" transform="translate(-348.000000, -228.000000)" fill="#fff">
            <g id="photo-camera" transform="translate(348.500000, 228.000000)">
                <g>
                    <path d="M0.454545455,7.34422932 L0.454545455,20.3912497 C0.454545455,22.3827005 2.04564007,24 4.00482375,24 L25.9951763,24 C27.9543599,24 29.5454545,22.3827005 29.5454545,20.3912497 L29.5454545,7.34422932 C29.5454545,5.44933367 28.0315399,3.91048529 26.1673469,3.91048529 L21.4415584,3.91048529 L21.328757,3.40960523 C20.8716141,1.40005029 19.1320965,0 17.1016698,0 L12.8923933,0 C10.8679035,0 9.1283859,1.40005029 8.66530612,3.40960523 L8.55250464,3.91048529 L3.83265306,3.91048529 C1.96846011,3.91048529 0.454545455,5.45536837 0.454545455,7.34422932 Z M9.13432282,5.38898667 C9.47272727,5.38898667 9.76363636,5.15363339 9.84081633,4.81569022 L10.0842301,3.7415137 C10.3929499,2.40784511 11.5447124,1.47850138 12.8923933,1.47850138 L17.1016698,1.47850138 C18.4493506,1.47850138 19.6011132,2.40784511 19.909833,3.7415137 L20.1532468,4.81569022 C20.2304267,5.14759869 20.5213358,5.38898667 20.8597403,5.38898667 L26.16141,5.38898667 C27.2241187,5.38898667 28.0849722,6.2640181 28.0849722,7.34422932 L28.0849722,20.3912497 C28.0849722,21.5680161 27.1469388,22.5214986 25.9892393,22.5214986 L4.00482375,22.5214986 C2.8471243,22.5214986 1.90909091,21.5680161 1.90909091,20.3912497 L1.90909091,7.34422932 C1.90909091,6.2640181 2.76994434,5.38898667 3.83265306,5.38898667 L9.13432282,5.38898667 Z" id="Shape" fill-rule="nonzero"></path>
                    <ellipse id="Oval" fill-rule="nonzero" cx="5.90909091" cy="8.30769231" rx="1" ry="1"></ellipse>
                    <path d="M15,20.3076923 C18.5064935,20.3076923 21.3636364,17.4065934 21.3636364,13.8461538 C21.3636364,10.2857143 18.5064935,7.38461538 15,7.38461538 C11.4935065,7.38461538 8.63636364,10.2794349 8.63636364,13.8461538 C8.63636364,17.4128728 11.4935065,20.3076923 15,20.3076923 Z M15,8.92307692 C17.6716141,8.92307692 19.8484848,11.133438 19.8484848,13.8461538 C19.8484848,16.5588697 17.6716141,18.7692308 15,18.7692308 C12.3283859,18.7692308 10.1515152,16.5588697 10.1515152,13.8461538 C10.1515152,11.133438 12.3283859,8.92307692 15,8.92307692 Z" id="Shape" fill-rule="nonzero"></path>
                </g>
            </g>
        </g>
    </g>
</svg>