<?xml version="1.0" encoding="UTF-8"?>
<svg width="27px" height="27px" viewBox="0 0 27 27" version="1.1" xmlns="http://www.w3.org/2000/svg" xmlns:xlink="http://www.w3.org/1999/xlink">
    <!-- Generator: sketchtool 54.1 (76490) - https://sketchapp.com -->
    <title>B42A221A-9F0D-45F3-B32A-8C2DF52DAE00</title>
    <desc>Created with sketchtool.</desc>
    <defs>
        <path d="M12.5416044,10.7731232 L22.2288149,1.08591273 C22.6193392,0.695388436 23.2525042,0.695388436 23.6430285,1.08591273 L24.561553,2.00443728 C24.9520773,2.39496157 24.9520773,3.02812655 24.561553,3.41865084 L14.8743425,13.1058613 L24.5619101,22.7934289 C24.9524344,23.1839532 24.9524344,23.8171182 24.5619101,24.2076425 L23.6426713,25.1268813 C23.252147,25.5174056 22.6189821,25.5174056 22.2284578,25.1268813 L12.5408902,15.4393137 L2.64124279,25.3389611 C2.2507185,25.7294853 1.61755352,25.7294853 1.22702923,25.3389611 L0.308504679,24.4204365 C-0.0820196128,24.0299122 -0.0820196128,23.3967472 0.308504679,23.0062229 L10.2081521,13.1065756 L0.308147562,3.20657106 C-0.0823767297,2.81604677 -0.0823767297,2.18288179 0.308147562,1.7923575 L1.22738634,0.87311872 C1.61791064,0.482594428 2.25107561,0.482594428 2.64159991,0.87311872 L12.5416044,10.7731232 Z" id="path-1"></path>
    </defs>
    <g id="Symbols" stroke="none" stroke-width="1" fill="none" fill-rule="evenodd">
        <g id="non">
            <g id="UI/Color/Flat/Icon-Color" transform="translate(1.000000, 0.222592)">
                <mask id="mask-2" fill="white">
                    <use xlink:href="#path-1"></use>
                </mask>
                <use id="Mask" fill="#1A3D52" xlink:href="#path-1"></use>
                <g mask="url(#mask-2)" fill="#C5D0DE" id="Base">
                    <g transform="translate(-2.000000, -1.000000)">
                        <rect x="0" y="0" width="29" height="28"></rect>
                    </g>
                </g>
            </g>
        </g>
    </g>
</svg>