<svg xmlns="http://www.w3.org/2000/svg" xmlns:xlink="http://www.w3.org/1999/xlink" width="17" height="17" viewBox="0 0 17 17">
    <defs>
        <path id="a" d="M8.357 5.143H5.143v3.214c0 .354-.29.643-.643.643a.645.645 0 0 1-.643-.643V5.143H.643A.645.645 0 0 1 0 4.5c0-.354.29-.643.643-.643h3.214V.643c0-.354.29-.643.643-.643.354 0 .643.29.643.643v3.214h3.214c.354 0 .643.29.643.643 0 .354-.29.643-.643.643z"/>
    </defs>
    <g fill="none" fill-rule="evenodd">
        <circle cx="8.5" cy="8.5" r="8.5" fill="#354052"/>
        <use fill="#FFF" fill-rule="nonzero" transform="translate(4 4)" xlink:href="#a"/>
    </g>
</svg>
