<?xml version="1.0" encoding="UTF-8"?>
<svg width="16px" height="16px" viewBox="0 0 16 16" version="1.1" xmlns="http://www.w3.org/2000/svg" xmlns:xlink="http://www.w3.org/1999/xlink">
    <!-- Generator: sketchtool 54.1 (76490) - https://sketchapp.com -->
    <title>F9C9AD46-B6CD-4C59-BF8E-829AD1D104D5</title>
    <desc>Created with sketchtool.</desc>
    <defs>
        <path d="M12.5,11.3092369 C11.8666667,11.3092369 11.3,11.5502008 10.8666667,11.9277108 L4.925,8.59437751 C4.96666667,8.40963855 5,8.2248996 5,8.03212851 C5,7.83935743 4.96666667,7.65461847 4.925,7.46987952 L10.8,4.1686747 C11.25,4.57028112 11.8416667,4.81927711 12.5,4.81927711 C13.8833333,4.81927711 15,3.74297189 15,2.40963855 C15,1.07630522 13.8833333,0 12.5,0 C11.1166667,0 10,1.07630522 10,2.40963855 C10,2.60240964 10.0333333,2.78714859 10.075,2.97188755 L4.2,6.27309237 C3.75,5.87148594 3.15833333,5.62248996 2.5,5.62248996 C1.11666667,5.62248996 0,6.69879518 0,8.03212851 C0,9.36546185 1.11666667,10.4417671 2.5,10.4417671 C3.15833333,10.4417671 3.75,10.1927711 4.2,9.79116466 L10.1333333,13.1325301 C10.0916667,13.3012048 10.0666667,13.4779116 10.0666667,13.6546185 C10.0666667,14.9477912 11.1583333,16 12.5,16 C13.8416667,16 14.9333333,14.9477912 14.9333333,13.6546185 C14.9333333,12.3614458 13.8416667,11.3092369 12.5,11.3092369 Z" id="path-1"></path>
    </defs>
    <g id="Symbols" stroke="none" stroke-width="1" fill="none" fill-rule="evenodd">
        <g id="Icon/Social/SHare">
            <g id="↳-🎨Color">
                <mask id="mask-2" fill="white">
                    <use xlink:href="#path-1"></use>
                </mask>
                <use id="Mask" fill="#000000" fill-rule="nonzero" xlink:href="#path-1"></use>
                <g id="UI/Color/Flat/Grey-50%" mask="url(#mask-2)" fill="#ffffff">
                    <g transform="translate(-3.000000, -2.000000)" id="Base">
                        <rect x="0" y="0" width="22" height="21"></rect>
                    </g>
                </g>
            </g>
        </g>
    </g>
</svg>