<?xml version="1.0" encoding="UTF-8"?>
<svg width="37px" height="39px" viewBox="0 0 37 39" version="1.1" xmlns="http://www.w3.org/2000/svg" xmlns:xlink="http://www.w3.org/1999/xlink">
    <!-- Generator: sketchtool 54.1 (76490) - https://sketchapp.com -->
    <title>C519089D-F222-47C1-9B7F-E126FDC81FE6</title>
    <desc>Created with sketchtool.</desc>
    <g id="main" stroke="none" stroke-width="1" fill="none" fill-rule="evenodd">
        <g id="Extra-Small-Devices:-Phones---2-Col-Copy-9" transform="translate(-278.000000, -374.000000)" fill="#FFA24C" fill-rule="nonzero" stroke="#FFA24C">
            <g id="Group-2" transform="translate(33.000000, 155.000000)">
                <g id="like-copy-2" transform="translate(245.000000, 220.000000)">
                    <path d="M34.8441419,21.0376626 C35.3579069,20.3527322 35.5791556,19.4503069 35.364289,18.5528733 C35.0022779,17.0407494 33.8740515,16.6086122 33.7914378,16.5676091 C33.8467499,16.4930903 34.706216,15.5439572 34.3091029,14.0831764 C33.9318455,12.6969143 32.8181562,12.1385587 32.7348334,12.0968425 C33.2478893,11.411912 33.4659469,10.510913 33.2539169,9.61347947 C32.8763049,8.01400109 31.2747339,7.02136896 29.6891183,7.40002393 C29.6447976,7.41000721 25.2265605,8.43009367 22.3052978,9.12750331 C22.0975225,9.17742015 21.9712973,9.05405419 21.9266221,8.99878909 C21.8815923,8.94281093 21.7865688,8.79127767 21.8791103,8.59410616 C22.5705125,7.11835026 23.0084005,5.52136774 23.0803773,4.21247673 C23.2073117,1.90703162 22.2425397,0.860560595 21.4107297,0.388133333 C20.718973,-0.00442697687 19.9541758,-0.103191089 19.2571007,0.110025195 C18.7344715,0.2697591 18.0001669,0.683355818 17.4690283,1.74515838 C16.0954426,4.49165454 14.64598,6.11074313 13.6716348,6.98535755 C12.5270983,8.01328803 11.6835878,9.3182569 11.2325808,10.7587144 L10.494376,13.1187116 L3.48852196,14.7909259 C1.40403316,15.2886682 0.110579265,17.3987245 0.605552209,19.495232 L4.03951635,34.0427834 C4.45648504,35.808057 6.02898168,37 7.75961454,37 C9.2970093,37 13.0273899,35.8490602 13.0273899,35.8490602 C14.0208816,35.6119552 14.8633286,34.9997607 15.3990765,34.1255028 C15.9351791,33.251245 16.1004066,32.2193924 15.8642661,31.2199859 L11.7332268,13.7205661 L12.5313531,11.1698154 C12.9086105,9.96432358 13.6166772,8.87043148 14.5782581,8.00687011 C15.6408901,7.05310179 17.2155141,5.29923776 18.6855415,2.36056182 C18.9344463,1.86281956 19.2691558,1.53764697 19.6535045,1.41998579 C19.9906961,1.31694318 20.3771721,1.373991 20.7413106,1.58043284 C21.8518088,2.21081128 22.296079,4.49201106 20.6473508,8.01079217 C20.3590893,8.62548246 20.4441849,9.33465819 20.8696632,9.86128088 C21.2937232,10.386834 21.9638514,10.6160949 22.619797,10.45957 C25.536096,9.76358653 29.9497237,8.74456975 29.9986537,8.73316018 C30.8591835,8.52778802 31.7197133,9.06582037 31.9292612,9.92938175 C32.2423423,11.2204453 31.1563092,11.7713133 30.739695,11.8707905 C30.4266139,11.9453091 30.1656539,12.2722646 30.2344396,12.694775 C30.2950702,13.0680817 30.6882831,13.2905682 31.0541944,13.2028571 C31.4708084,13.10338 31.9012506,13.1732636 32.2657437,13.3989591 C32.6302367,13.625011 32.8855237,13.9801337 32.9844473,14.3994352 C33.083371,14.8183802 33.0142309,15.250874 32.7894365,15.6177629 C32.5646421,15.984295 32.2114952,16.2410102 31.7948811,16.3404874 C31.4818,16.4153627 31.2123304,16.7077328 31.2896257,17.1648284 C31.3530928,17.5374221 31.7438237,17.7599086 32.1093804,17.6725541 C32.5263491,17.5730769 32.9564367,17.6429606 33.3209298,17.8690125 C33.6854228,18.094708 33.9407097,18.4501873 34.0396334,18.8691322 C34.1385571,19.2880771 34.0694169,19.7209274 33.8446225,20.0874598 C33.6198282,20.453992 33.2666813,20.7107072 32.8500672,20.8101843 C32.536986,20.8850596 32.267871,21.1988227 32.3448117,21.6345254 C32.4107608,22.0067624 32.7993643,22.2296055 33.1645665,22.142251 C34.0247417,21.9368788 34.8905899,22.4738415 35.0948194,23.3388291 C35.299049,24.2038168 34.7654284,25.0745091 33.9052532,25.2798813 L17.6487929,29.1605594 C17.2828816,29.2479139 17.0566689,29.616942 17.1435374,29.9849005 C17.2179961,30.2997332 17.4942024,30.5995908 17.9632921,30.4929827 L34.2197526,26.6123045 C35.8103321,26.2325799 36.7970871,24.6220486 36.4194751,23.0225703 C36.2074451,22.1244236 35.6092936,21.4173871 34.8441419,21.0376626 L34.8441419,21.0376626 Z M14.2403574,33.4070568 C13.8953655,33.9700475 13.3528807,34.364034 12.7128905,34.5169935 L8.32869169,35.5634645 C7.00722712,35.8790103 5.67796217,35.0546692 5.36417198,33.7265246 L1.93020784,19.1789731 C1.60861726,17.817313 2.44893677,16.4463824 3.80302133,16.1233491 L10.5227412,14.5192356 L14.5396105,31.5362447 C14.6917189,32.1798155 14.5853494,32.8440661 14.2403574,33.4070568 L14.2403574,33.4070568 Z" id="Shape"></path>
                    <path d="M9.5,34 C7.84569428,34 6.5,32.6543057 6.5,31 C6.5,29.3456942 7.84569428,28 9.5,28 C11.1539361,28 12.5,29.3456942 12.5,31 C12.5,32.6543057 11.1539361,34 9.5,34 L9.5,34 Z M9.49999995,29.4192436 C8.62812619,29.4192436 7.91924355,30.1284958 7.91924355,31 C7.91924355,31.8715042 8.62812619,32.5807564 9.49999995,32.5807564 C10.3715042,32.5807564 11.0807564,31.8715042 11.0807564,31 C11.0807564,30.1284958 10.3715042,29.4192436 9.49999995,29.4192436 Z" id="Shape"></path>
                </g>
            </g>
        </g>
    </g>
</svg>