<?xml version="1.0" encoding="UTF-8"?>
<svg width="22px" height="13px" viewBox="0 0 22 13" version="1.1" xmlns="http://www.w3.org/2000/svg" xmlns:xlink="http://www.w3.org/1999/xlink">
    <!-- Generator: sketchtool 54.1 (76490) - https://sketchapp.com -->
    <title>42DCB830-8BB7-4713-84A8-FD0D72247737</title>
    <desc>Created with sketchtool.</desc>
    <g id="main" stroke="none" stroke-width="1" fill="none" fill-rule="evenodd">
        <g id="Extra-Small-Devices:-Phones---2-Col-Copy-24" transform="translate(-59.000000, -573.000000)" fill="#FFFFFF" fill-rule="nonzero">
            <path d="M77.9341348,581.265992 C78.6639023,582.00996 79.4341481,582.709926 80.0886692,583.528917 C80.3778005,583.892863 80.6515356,584.268432 80.8609389,584.690796 C81.1576599,585.291209 80.8889124,585.951926 80.3733189,585.987778 L77.1682982,585.986268 C76.3416718,586.057895 75.6822355,585.710403 75.1277539,585.120255 C74.6840096,584.648303 74.2730817,584.14601 73.8463962,583.658132 C73.6714717,583.458724 73.4883793,583.271091 73.2696515,583.12278 C72.8321235,582.826234 72.4523495,582.917032 72.2023232,583.393513 C71.9476708,583.878145 71.8899168,584.41478 71.8649069,584.954887 C71.8305726,585.742933 71.602448,585.950115 70.8443457,585.986193 C69.2241983,586.065971 67.6865979,585.810031 66.2582169,584.956623 C64.9989054,584.204277 64.0223644,583.142177 63.1723906,581.939767 C61.5174752,579.598423 60.2501403,577.025669 59.1111075,574.380835 C58.8547203,573.784952 59.0422219,573.465084 59.6718777,573.453762 C60.7174488,573.432554 61.7628754,573.434063 62.8096753,573.452253 C63.2346261,573.458744 63.5159509,573.713249 63.6800329,574.132444 C64.2457183,575.58483 64.9378987,576.966647 65.8067383,578.247476 C66.0381157,578.588477 66.2740468,578.929478 66.6100174,579.169492 C66.9816958,579.435244 67.264683,579.347163 67.4395352,578.914836 C67.5504893,578.640707 67.5990634,578.345444 67.6240733,578.051842 C67.7069094,577.041746 67.7178241,576.033385 67.5725356,575.026835 C67.4833386,574.398648 67.1444767,573.991982 66.5441678,573.873108 C66.2378331,573.8125 66.2834436,573.693474 66.431768,573.510898 C66.689384,573.196011 66.931676,573 67.4146699,573 L71.0368348,573 C71.6070741,573.117516 71.7337136,573.385004 71.8117791,573.984133 L71.8148872,578.18536 C71.8086709,578.417298 71.9258414,579.105564 72.3259268,579.259083 C72.6461398,579.368372 72.8572056,579.100885 73.0493334,578.888872 C73.9165828,577.92776 74.5355407,576.79192 75.0885043,575.615775 C75.3339046,575.098613 75.5448981,574.561525 75.7493863,574.02489 C75.9008911,573.626678 76.1386293,573.430742 76.5682062,573.439422 L80.0543348,573.442667 C80.1576993,573.442667 80.2622925,573.444252 80.3624042,573.46214 C80.9498468,573.566675 81.1108207,573.830539 80.9293908,574.429517 C80.6435122,575.36927 80.0872958,576.152411 79.5434398,576.939174 C78.962069,577.779147 78.3402921,578.590364 77.7637642,579.435319 C77.2340756,580.206912 77.2761442,580.59584 77.9341348,581.265992 L77.9341348,581.265992 Z" id="XMLID_807_-Copy"></path>
        </g>
    </g>
</svg>