<?xml version="1.0" encoding="UTF-8"?>
<svg width="16px" height="16px" viewBox="0 0 16 16" version="1.1" xmlns="http://www.w3.org/2000/svg" xmlns:xlink="http://www.w3.org/1999/xlink">
    <!-- Generator: sketchtool 54.1 (76490) - https://sketchapp.com -->
    <title>9048D062-BE61-4042-B1ED-063077F962E9</title>
    <desc>Created with sketchtool.</desc>
    <defs>
        <path d="M10.6966667,0.892307692 L1.59666667,0.892307692 C0.7625,0.892307692 0.08,1.67980769 0.08,2.64230769 L0.08,13.1423077 C0.08,14.1048077 0.7625,14.8923077 1.59666667,14.8923077 L10.6966667,14.8923077 C11.5308333,14.8923077 12.2133333,14.1048077 12.2133333,13.1423077 L12.2133333,2.64230769 C12.2133333,1.67980769 11.5308333,0.892307692 10.6966667,0.892307692 Z M10.48,12.8923077 L1.81333333,12.8923077 L1.81333333,2.89230769 L10.48,2.89230769 L10.48,12.8923077 Z M3.58666667,10 L6.14666667,10 L6.14666667,11.7230769 L3.58666667,11.7230769 L3.58666667,10 Z M3.58666667,7 L8.70666667,7 L8.70666667,8.72307692 L3.58666667,8.72307692 L3.58666667,7 Z M3.58666667,4.44615385 L8.70666667,4.44615385 L8.70666667,6.16923077 L3.58666667,6.16923077 L3.58666667,4.44615385 Z" id="path-1"></path>
    </defs>
    <g id="Symbols" stroke="none" stroke-width="1" fill="none" fill-rule="evenodd">
        <g id="Icon/shelf-book">
            <g id="outline-library_books-24px" transform="translate(2.000000, 0.000000)">
                <g id="↳-🎨Color">
                    <mask id="mask-2" fill="white">
                        <use xlink:href="#path-1"></use>
                    </mask>
                    <use id="Mask" fill="#000000" fill-rule="nonzero" xlink:href="#path-1"></use>
                    <g id="UI/Color/Flat/Grey-50%" mask="url(#mask-2)" fill="#ffffff">
                        <g transform="translate(-1.733333, 0.000000)" id="Base">
                            <rect x="0" y="0" width="16" height="16"></rect>
                        </g>
                    </g>
                </g>
            </g>
        </g>
    </g>
</svg>