<?xml version="1.0" encoding="UTF-8"?>
<svg width="14px" height="16px" viewBox="0 0 14 16" version="1.1" xmlns="http://www.w3.org/2000/svg" xmlns:xlink="http://www.w3.org/1999/xlink">
    <!-- Generator: sketchtool 54.1 (76490) - https://sketchapp.com -->
    <title>745E9826-8EA9-42A9-908A-213B87C69ABC</title>
    <desc>Created with sketchtool.</desc>
    <defs>
        <path d="M11.4097778,0.951794872 L1.70311111,0.951794872 C0.813333333,0.951794872 0.0853333333,1.79179487 0.0853333333,2.81846154 L0.0853333333,14.0184615 C0.0853333333,15.0451282 0.813333333,15.8851282 1.70311111,15.8851282 L11.4097778,15.8851282 C12.2995556,15.8851282 13.0275556,15.0451282 13.0275556,14.0184615 L13.0275556,2.81846154 C13.0275556,1.79179487 12.2995556,0.951794872 11.4097778,0.951794872 Z M11.1786667,13.7517949 L1.93422222,13.7517949 L1.93422222,3.08512821 L11.1786667,3.08512821 L11.1786667,13.7517949 Z M3.82577778,10.6666667 L6.55644444,10.6666667 L6.55644444,12.5046154 L3.82577778,12.5046154 L3.82577778,10.6666667 Z M3.82577778,7.46666667 L9.28711111,7.46666667 L9.28711111,9.30461538 L3.82577778,9.30461538 L3.82577778,7.46666667 Z M3.82577778,4.7425641 L9.28711111,4.7425641 L9.28711111,6.58051282 L3.82577778,6.58051282 L3.82577778,4.7425641 Z" id="path-1"></path>
    </defs>
    <g id="book" stroke="none" stroke-width="1" fill="none" fill-rule="evenodd">
        <g id="Extra-large:-Desktops---12-col-_-about-book_-review" transform="translate(-703.000000, -766.000000)">
            <g id="↳-🎨Color" transform="translate(703.000000, 766.000000)">
                <mask id="mask-2" fill="white">
                    <use xlink:href="#path-1"></use>
                </mask>
                <use id="Mask" fill="#354052" fill-rule="nonzero" xlink:href="#path-1"></use>
            </g>
        </g>
    </g>
</svg>