<?xml version="1.0" encoding="UTF-8"?>
<svg width="21px" height="20px" viewBox="0 0 21 20" version="1.1" xmlns="http://www.w3.org/2000/svg" xmlns:xlink="http://www.w3.org/1999/xlink">
    <!-- Generator: sketchtool 54.1 (76490) - https://sketchapp.com -->
    <title>D54A65EF-85CD-49B1-8DBD-B98E44AC08DF</title>
    <desc>Created with sketchtool.</desc>
    <defs>
        <path d="M17.7954579,14.0432025 L5.69505635,14.0432025 C5.19634066,14.0432025 4.79213115,13.5808582 4.79213115,13.0104156 C4.79213115,12.439973 5.19634066,11.9776287 5.69505635,11.9776287 L17.7951569,11.9776287 C18.2938726,11.9776287 18.6980821,12.439973 18.6980821,13.0104156 C18.6980821,13.5808582 18.2941736,14.0432025 17.7954579,14.0432025 Z M19.6656393,8.56039923 L5.82491803,8.56039923 C5.25447541,8.56039923 4.79213115,8.09805497 4.79213115,7.52761234 C4.79213115,6.95716972 5.25447541,6.49482546 5.82491803,6.49482546 L19.6652951,6.49482546 C20.2357377,6.49482546 20.698082,6.95716972 20.698082,7.52761234 C20.6984262,8.09805497 20.236082,8.56039923 19.6656393,8.56039923 Z M16.8603671,3.07759595 L5.6301255,3.07759595 C5.16727329,3.07759595 4.79213115,2.61525169 4.79213115,2.04480906 C4.79213115,1.47436644 5.16727329,1.01202218 5.6301255,1.01202218 L16.8600878,1.01202218 C17.32294,1.01202218 17.6980821,1.47436644 17.6980821,2.04480906 C17.6980821,2.61525169 17.3232193,3.07759595 16.8603671,3.07759595 Z M1.38703279,3.5117107 C0.620995731,3.5117107 0,2.89071497 0,2.12467792 C0,1.35864086 0.620995731,0.73764513 1.38703279,0.73764513 C2.15306984,0.73764513 2.77406557,1.35864086 2.77406557,2.12467792 C2.77406557,2.89071497 2.15306984,3.5117107 1.38703279,3.5117107 Z M1.38703279,8.91464513 C0.620995731,8.91464513 0,8.2936494 0,7.52761234 C0,6.76157529 0.620995731,6.14057956 1.38703279,6.14057956 C2.15306984,6.14057956 2.77406557,6.76157529 2.77406557,7.52761234 C2.77406557,8.2936494 2.15306984,8.91464513 1.38703279,8.91464513 Z M1.38703279,14.3175796 C0.620995731,14.3175796 0,13.6965838 0,12.9305468 C0,12.1645097 0.620995731,11.543514 1.38703279,11.543514 C2.15306984,11.543514 2.77406557,12.1645097 2.77406557,12.9305468 C2.77406557,13.6965838 2.15306984,14.3175796 1.38703279,14.3175796 Z M18.7305487,19.0432025 L5.7599872,19.0432025 C5.22540804,19.0432025 4.79213115,18.5808582 4.79213115,18.0104156 C4.79213115,17.439973 5.22540804,16.9776287 5.7599872,16.9776287 L18.7302261,16.9776287 C19.2648053,16.9776287 19.6980821,17.439973 19.6980821,18.0104156 C19.6980821,18.5808582 19.2651279,19.0432025 18.7305487,19.0432025 Z M1.38703279,19.3175796 C0.620995731,19.3175796 0,18.6965838 0,17.9305468 C0,17.1645097 0.620995731,16.543514 1.38703279,16.543514 C2.15306984,16.543514 2.77406557,17.1645097 2.77406557,17.9305468 C2.77406557,18.6965838 2.15306984,19.3175796 1.38703279,19.3175796 Z" id="path-1"></path>
    </defs>
    <g id="Symbols" stroke="none" stroke-width="1" fill="none" fill-rule="evenodd">
        <g id="Icon/list">
            <g id="list">
                <g id="UI/Color/Flat/Primary-Grey" transform="translate(0.000000, 0.411765)">
                    <mask id="mask-2" fill="white">
                        <use xlink:href="#path-1"></use>
                    </mask>
                    <use id="Mask" fill="#000000" fill-rule="nonzero" xlink:href="#path-1"></use>
                    <g mask="url(#mask-2)" fill="#fff" id="Base">
                        <rect x="0" y="0" width="21" height="21"></rect>
                    </g>
                </g>
            </g>
        </g>
    </g>
</svg>