<?xml version="1.0" encoding="UTF-8"?>
<svg width="24px" height="33px" viewBox="0 0 24 33" version="1.1" xmlns="http://www.w3.org/2000/svg" xmlns:xlink="http://www.w3.org/1999/xlink">
    <!-- Generator: sketchtool 54.1 (76490) - https://sketchapp.com -->
    <title>15FEB19A-3DEA-4C7F-9094-AE1B27D19034</title>
    <desc>Created with sketchtool.</desc>
    <g id="reader" stroke="none" stroke-width="1" fill="none" fill-rule="evenodd">
        <g id="Medium-Devices:-Tablets---6-col-_-reader2" transform="translate(-395.000000, -197.000000)" fill="#354052" fill-rule="nonzero">
            <g id="Group-14" transform="translate(374.000000, 44.000000)">
                <g id="Group-13" transform="translate(21.000000, 27.000000)">
                    <g id="Group-15" transform="translate(0.000000, 126.000000)">
                        <path d="M3,0 L21,0 C22.6568542,-2.22044605e-16 24,1.34314575 24,3 L24,30 C24,31.6568542 22.6568542,33 21,33 L3,33 C1.34314575,33 2.22044605e-16,31.6568542 0,30 L0,3 C-2.22044605e-16,1.34314575 1.34314575,3.33066907e-16 3,0 Z M3,2 C2.44771525,2 2,2.44771525 2,3 L2,30 C2,30.5522847 2.44771525,31 3,31 L21,31 C21.5522847,31 22,30.5522847 22,30 L22,3 C22,2.44771525 21.5522847,2 21,2 L3,2 Z" id="Rectangle"></path>
                        <polygon id="Line-2" points="3.5 7.5 21 7.5 21 5.5 3.5 5.5"></polygon>
                        <polygon id="Line-2-Copy" points="3.5 11.5 21 11.5 21 9.5 3.5 9.5"></polygon>
                        <polygon id="Line-2-Copy-2" points="3.5 15.5 21 15.5 21 13.5 3.5 13.5"></polygon>
                        <polygon id="Line-2-Copy-3" points="3.5 19.5 21 19.5 21 17.5 3.5 17.5"></polygon>
                        <polygon id="Line-2-Copy-4" points="3.5 23.5 21 23.5 21 21.5 3.5 21.5"></polygon>
                        <polygon id="Line-2-Copy-5" points="3.5 27.5 13.25 27.5 13.25 25.5 3.5 25.5"></polygon>
                    </g>
                </g>
            </g>
        </g>
    </g>
</svg>