<?xml version="1.0" encoding="UTF-8"?>
<svg width="21px" height="18px" viewBox="0 0 21 18" version="1.1" xmlns="http://www.w3.org/2000/svg" xmlns:xlink="http://www.w3.org/1999/xlink">
    <!-- Generator: sketchtool 54.1 (76490) - https://sketchapp.com -->
    <title>881B8B86-EF5E-4EF1-9C9B-0A7FF3274BB4</title>
    <desc>Created with sketchtool.</desc>
    <defs>
        <path d="M6.39344262,8.1292189 C5.32482709,8.1292189 4.4137423,8.81457365 4.07546746,9.76856316 L0,9.76856316 L0,11.4079074 L4.07546746,11.4079074 C4.4137423,12.3618969 5.32482709,13.0472517 6.39344262,13.0472517 C7.46205816,13.0472517 8.37314295,12.3618969 8.71141779,11.4079074 L20.9836066,11.4079074 L20.9836066,9.76856316 L8.71141779,9.76856316 C8.37314295,8.81457365 7.46205816,8.1292189 6.39344262,8.1292189 Z M6.39344262,11.4079074 C5.9415023,11.4079074 5.57377049,11.0401756 5.57377049,10.5882353 C5.57377049,10.136295 5.9415023,9.76856316 6.39344262,9.76856316 C6.84538295,9.76856316 7.21311475,10.136295 7.21311475,10.5882353 C7.21311475,11.0401756 6.84538295,11.4079074 6.39344262,11.4079074 Z M17.3999424,3.22757956 C17.0616675,2.27359005 16.1505827,1.58823529 15.0819672,1.58823529 C14.0133517,1.58823529 13.1022669,2.27359005 12.763992,3.22757956 L-3.57047725e-13,3.22757956 L-3.57047725e-13,4.86692382 L12.763992,4.86692382 C13.1022669,5.82091333 14.0133517,6.50626808 15.0819672,6.50626808 C16.1505827,6.50626808 17.0616675,5.82091333 17.3999424,4.86692382 L20.9836066,4.86692382 L20.9836066,3.22757956 L17.3999424,3.22757956 Z M15.0819672,4.86692382 C14.6300269,4.86692382 14.2622951,4.49919202 14.2622951,4.04725169 C14.2622951,3.59531136 14.6300269,3.22757956 15.0819672,3.22757956 C15.5339075,3.22757956 15.9016393,3.59531136 15.9016393,4.04725169 C15.9016393,4.49919202 15.5339075,4.86692382 15.0819672,4.86692382 Z M13.5245902,14.6702025 C12.4559746,14.6702025 11.5448898,15.3555573 11.206615,16.3095468 L-3.57047725e-13,16.3095468 L-3.57047725e-13,17.948891 L11.206615,17.948891 C11.5448898,18.9028805 12.4559746,19.5882353 13.5245902,19.5882353 C14.5932057,19.5882353 15.5042905,18.9028805 15.8425653,17.948891 L20.9836066,17.948891 L20.9836066,16.3095468 L15.8425653,16.3095468 C15.5042905,15.3555573 14.5932057,14.6702025 13.5245902,14.6702025 Z M13.5245902,17.948891 C13.0726498,17.948891 12.704918,17.5811592 12.704918,17.1292189 C12.704918,16.6772786 13.0726498,16.3095468 13.5245902,16.3095468 C13.9765305,16.3095468 14.3442623,16.6772786 14.3442623,17.1292189 C14.3442623,17.5811592 13.9765305,17.948891 13.5245902,17.948891 Z" id="path-1"></path>
    </defs>
    <g id="reader" stroke="none" stroke-width="1" fill="none" fill-rule="evenodd">
        <g id="Medium-Devices:-Tablets---6-col-_-reader2" transform="translate(-673.000000, -20.000000)">
            <g id="Icon/settings" transform="translate(673.000000, 19.000000)">
                <g id="settings" transform="translate(-0.000000, -1.000000)">
                    <g id="UI/Color/Flat/Primary-Grey" transform="translate(0.000000, 0.411765)">
                        <mask id="mask-2" fill="white">
                            <use xlink:href="#path-1"></use>
                        </mask>
                        <use id="Mask" fill="#000000" fill-rule="nonzero" xlink:href="#path-1"></use>
                        <g mask="url(#mask-2)" fill="#354052" id="Base">
                            <rect x="0" y="0" width="21" height="21"></rect>
                        </g>
                    </g>
                </g>
            </g>
        </g>
    </g>
</svg>